<svg xmlns="http://www.w3.org/2000/svg" viewBox="0 0 358.4 357.6"><path fill="currentColor" d="m224.384 178.352 102.69-24.896c13.498 81.824-39.797 144.052-88.434 163.02-.948-36.03-3.646-76.667-14.256-138.124zM179.947 29.068c8.642 23.31 19.855 47.052 34.504 106.445l98.882-24.542c-36.367-71.52-107.255-84.347-133.386-81.903Zm-9.055 117.362c-12.232-50.655-25.97-85.345-36.84-111.197C119.58 38.967 29.466 72.343 29.2 180.867Zm8.967 43.792L36.114 225.324c23.726 71.486 92.209 109.422 157.253 102.723-.506-47.445-5.742-91.833-13.508-137.825z" style="stroke-width:.839105"/></svg>