<svg xmlns="http://www.w3.org/2000/svg" viewBox="0 0 539.8 634.3"><path fill="#D7BD5E" d="M538.8 362.6c.7.5 1 1 1 1.9v5.3a134.5 134.5 0 0 1-.2 4.8 141.3 141.3 0 0 1-.3 5 176.9 176.9 0 0 1-1 10.3 191 191 0 0 1-1.6 10.6 209.8 209.8 0 0 1-2.3 11.1 223.6 223.6 0 0 1-3 11.3 214.4 214.4 0 0 1-3.7 11.4 209 209 0 0 1-4.5 11.4 201.6 201.6 0 0 1-2.6 5.7 205.9 205.9 0 0 1-2.7 5.7 208.6 208.6 0 0 1-9.5 16.5 177.7 177.7 0 0 1-3.6 5.4 161.3 161.3 0 0 1-3.8 5.2 169.7 169.7 0 0 1-8.2 10.2 172.6 172.6 0 0 1-4.4 4.8 174.2 174.2 0 0 1-9.5 9.3 178.4 178.4 0 0 1-5 4.4 191.7 191.7 0 0 1-10.4 8.2 178 178 0 0 1-5.5 4 241.7 241.7 0 0 1-5.6 3.6 224.5 224.5 0 0 1-11.6 7 217.7 217.7 0 0 1-6 3.2 274.4 274.4 0 0 1-12 5.9 308.9 308.9 0 0 1-12.4 5.4 392 392 0 0 1-12.5 4.9l-6.2 2.3a781.3 781.3 0 0 1-9.3 3.2 1369.2 1369.2 0 0 1-20.6 7l-3 1a1113.8 1113.8 0 0 0-5.8 2l-5.6 2a488 488 0 0 0-5.5 1.9 292 292 0 0 0-10.4 4 225 225 0 0 0-5 2 207.6 207.6 0 0 0-4.7 2.2 154.4 154.4 0 0 0-4.5 2.2l-4.2 2.2a137.6 137.6 0 0 0-4 2.4 97.7 97.7 0 0 0-3.9 2.4 93.2 93.2 0 0 0-3.5 2.5 70.7 70.7 0 0 0-3.3 2.6 74 74 0 0 0-3.2 2.7 72 72 0 0 0-2.8 2.7 61 61 0 0 0-2.7 3 60.2 60.2 0 0 0-2.5 3 74 74 0 0 0-2.4 3 83.8 83.8 0 0 0-2.2 3.3 84.4 84.4 0 0 0-2 3.4l-8.8 15.1c-.8 1.5-3 1.5-3.9 0l-8.7-15.1a99.5 99.5 0 0 0-2-3.4 85.7 85.7 0 0 0-2.2-3.3 76.5 76.5 0 0 0-4.9-6 77.8 77.8 0 0 0-2.7-3 70 70 0 0 0-2.9-2.7 73.4 73.4 0 0 0-3-2.7 77.5 77.5 0 0 0-3.4-2.6 85.6 85.6 0 0 0-3.6-2.5 98 98 0 0 0-3.8-2.4 139 139 0 0 0-4-2.4 160.8 160.8 0 0 0-4.2-2.2 158.4 158.4 0 0 0-4.5-2.2 240 240 0 0 0-4.8-2.1l-4.9-2.1a246 246 0 0 0-5.1-2 394.5 394.5 0 0 0-10.8-4 765 765 0 0 0-11.4-3.9 3203 3203 0 0 0-11.5-3.8l-12.2-4.2a943.3 943.3 0 0 1-9.2-3.2 563.9 563.9 0 0 1-6.2-2.3 438.5 438.5 0 0 1-6.3-2.4l-6.2-2.5a364.3 364.3 0 0 1-6.2-2.6 322.9 322.9 0 0 1-6.2-2.8 242.4 242.4 0 0 1-6-2.9 222 222 0 0 1-6.1-3 217.7 217.7 0 0 1-17.6-10.2 199.4 199.4 0 0 1-5.6-3.7 179.1 179.1 0 0 1-5.4-3.9 192.3 192.3 0 0 1-5.3-4 194.6 194.6 0 0 1-5.2-4.2 180 180 0 0 1-5-4.4A177.2 177.2 0 0 1 56 504a172.3 172.3 0 0 1-4.6-4.7 174 174 0 0 1-4.4-4.8 167.5 167.5 0 0 1-4.2-5 166 166 0 0 1-4-5.2A186.7 186.7 0 0 1 35 479a185.3 185.3 0 0 1-7-10.8A193 193 0 0 1 22 457a190.4 190.4 0 0 1-5.3-11.4 198.8 198.8 0 0 1-4.5-11.4 216 216 0 0 1-3.7-11.4 221.6 221.6 0 0 1-3-11.3 222.7 222.7 0 0 1-2.3-11 203.6 203.6 0 0 1-1.7-10.7 178.7 178.7 0 0 1-1-10.3 162 162 0 0 1-.4-9.8v-5.3a2 2 0 0 1 1-1.9l4.2-3a263.6 263.6 0 0 0 7-5 227.5 227.5 0 0 0 6.4-5.1 209.2 209.2 0 0 0 6-5.1 195.4 195.4 0 0 0 5.7-5.2 178.6 178.6 0 0 0 5.2-5.2 168.4 168.4 0 0 0 4.8-5.2 155.8 155.8 0 0 0 4.4-5.2 148 148 0 0 0 4-5.3 136.2 136.2 0 0 0 3.7-5.3 117.9 117.9 0 0 0 3.2-5.4c1-1.7 2-3.5 2.9-5.4a102.5 102.5 0 0 0 2.5-5.4 108.3 108.3 0 0 0 2-5.4 98.9 98.9 0 0 0 1.8-5.5 96.3 96.3 0 0 0 1.4-5.5 99.4 99.4 0 0 0 2.1-17 95.4 95.4 0 0 0 0-5.8 99.3 99.3 0 0 0-.4-5.9 114.5 114.5 0 0 0-.7-6 109.4 109.4 0 0 0-1.1-6.1 112.7 112.7 0 0 0-1.5-6.2 129.8 129.8 0 0 0-1.8-6.3 139 139 0 0 0-2.2-6.5 143.8 143.8 0 0 0-2.7-6.5 169.8 169.8 0 0 0-3-6.7 214.6 214.6 0 0 0-3.4-6.8 205.8 205.8 0 0 0-3.7-6.8 225.8 225.8 0 0 0-4.8-8 274.1 274.1 0 0 0-9.8-14.2 366 366 0 0 0-5.4-7.3 394 394 0 0 0-5.9-7.4l-3.7-4.5c-.6-.7-.7-1.4-.3-2.2l2-5.5C37 100.1 55.2 55.6 75 11a4938.8 4938.8 0 0 1 3.8-8.4c.6-1.3 1.3-1.7 2.7-1.2l8.7 3a379.2 379.2 0 0 0 12.7 4 326.2 326.2 0 0 0 12.5 3.4 318.4 318.4 0 0 0 12.2 3 296 296 0 0 0 35.1 5.3l11.3.7 11 .1a204.4 204.4 0 0 0 31.4-2.9 171.5 171.5 0 0 0 10-2 176 176 0 0 0 9.9-2.6 169.1 169.1 0 0 0 9.6-3.1 168.6 168.6 0 0 0 9.4-3.7 175 175 0 0 0 9.2-4.2 9122.2 9122.2 0 0 0 4.4-2.1 2 2 0 0 1 2 0l4.4 2.1a175 175 0 0 0 9.2 4.2 165.9 165.9 0 0 0 9.4 3.7 169.1 169.1 0 0 0 9.6 3 175.9 175.9 0 0 0 30.1 6.2 204.5 204.5 0 0 0 21.2 1.4 228.6 228.6 0 0 0 22.2-.8 248.7 248.7 0 0 0 11.5-1.2 262.3 262.3 0 0 0 11.7-1.8 289.7 289.7 0 0 0 12-2.4 312 312 0 0 0 12.2-2.9 330.5 330.5 0 0 0 12.4-3.4 372.2 372.2 0 0 0 12.7-4l8.7-3c1.4-.5 2.2-.1 2.8 1.2l3.7 8.4c19.8 44.6 38.2 89.1 55.1 133.7a930.8 930.8 0 0 1 2.1 5.5c.3.8.2 1.5-.3 2.2l-3.7 4.5a398.2 398.2 0 0 0-6 7.4 291.7 291.7 0 0 0-5.4 7.3 274.1 274.1 0 0 0-5 7.2 228 228 0 0 0-4.7 7 226.8 226.8 0 0 0-4.8 8 203 203 0 0 0-3.8 6.8 189.9 189.9 0 0 0-3.4 6.8 188 188 0 0 0-3 6.7 156 156 0 0 0-2.6 6.5 154.5 154.5 0 0 0-2.2 6.5 125 125 0 0 0-3.3 12.5 109.3 109.3 0 0 0-1.1 6.1l-.8 6a99.3 99.3 0 0 0-.3 6 106.2 106.2 0 0 0 0 5.7c0 2 .1 3.9.3 5.8a90.2 90.2 0 0 0 3.1 16.7 98 98 0 0 0 1.8 5.5 107.8 107.8 0 0 0 2.1 5.4 101.3 101.3 0 0 0 2.5 5.4 101.9 101.9 0 0 0 2.9 5.4 116 116 0 0 0 3.2 5.4 113.6 113.6 0 0 0 3.6 5.3 126 126 0 0 0 4 5.3 154.6 154.6 0 0 0 4.5 5.2 164.8 164.8 0 0 0 4.8 5.2 178.6 178.6 0 0 0 5.2 5.2 210.5 210.5 0 0 0 5.6 5.2 228.4 228.4 0 0 0 6 5 242.8 242.8 0 0 0 13.4 10.2 883.4 883.4 0 0 0 4.3 3zm-11.8 17c0-1.4 1.1-9.4-.6-10.7-38.5-27.5-72-66-66.8-118.8a3 3 0 0 0-5-2.5L142 537.4a3 3 0 0 0 1 4.9c22.4 8.6 45.6 15 68 24 23.4 9.3 42.6 19.7 56.8 42.3a2.4 2.4 0 0 0 4.1 0c18.2-28.8 48.8-40 77.6-49.9 29.7-10.1 59.5-19 87.3-34.9a166.8 166.8 0 0 0 66.3-65.2 185.5 185.5 0 0 0 17.7-43.5 196.5 196.5 0 0 0 5-24.2 193.3 193.3 0 0 0 1.2-11.3zm-19.6-229.4c1.7-2.1-3.8-13.5-4.4-15a2539.3 2539.3 0 0 0-5.8-14.9 2465.7 2465.7 0 0 0-11.9-29.6 2666 2666 0 0 0-24.9-59c-2-4.7-8.3-6-12.1-2.5L23.9 422.5c-3.7 3.4 2.7 15.2 3.8 18a179.8 179.8 0 0 0 8.5 17.2A164.8 164.8 0 0 0 58.7 489c18 19.7 38.7 33.1 62.7 44.2 3.3 1.6 5.6 1.2 8.3-1.3L466 220.4l.7-1c9.2-26.3 23.6-48 40.8-69.2zm-77-121.3c2.4-2.1.3-6-2.8-5.2-52 13.5-106.2 14.7-156.7-9.7-.7-.4-1.3-.4-2 0-58.7 28.4-122.3 22-180.5 2.7-3.4-1.1-4.4 4.6-5.3 6.4l-3.6 8.4a2557.3 2557.3 0 0 0-7.3 16.8A2733.5 2733.5 0 0 0 58 82.1a2726.5 2726.5 0 0 0-13.7 34l-6.7 17a2628.2 2628.2 0 0 0-3.3 8.5c-.4 1.2-3.3 7-2 8.6 64.8 79.9 70.2 155-19 218.7-2.6 1.9 0 16.6.3 18.5a192 192 0 0 0 3.2 18.7 3 3 0 0 0 5 1.5L430.5 29z"/><path fill="#A22122" d="M526.4 369c1.8 1.2.7 9.2.6 10.6a191.6 191.6 0 0 1-1.2 11.3 196.4 196.4 0 0 1-5 24.1 185.5 185.5 0 0 1-17.7 43.6 166.8 166.8 0 0 1-66.3 65.2c-27.8 15.8-57.6 24.8-87.3 35-28.8 9.8-59.4 21-77.6 49.7a2.4 2.4 0 0 1-4 0c-14.3-22.5-33.5-32.9-57-42.2-22.3-9-45.5-15.4-68-24a3 3 0 0 1-1-5l312.8-289.7a3 3 0 0 1 5 2.4c-5.2 53 28.2 91.4 66.7 119z"/><path fill="#333" d="M503 135.2c.6 1.5 6.1 12.9 4.4 15a229.1 229.1 0 0 0-40.8 69.2 2.4 2.4 0 0 1-.7 1L129.7 531.9c-2.7 2.5-5 2.9-8.3 1.3A189.8 189.8 0 0 1 58.7 489a164.8 164.8 0 0 1-22.5-31.3 180.3 180.3 0 0 1-8.5-17.3c-1.1-2.7-7.5-14.5-3.8-17.9L448.3 29.2a7.6 7.6 0 0 1 12.1 2.6 2670 2670 0 0 1 25 58.9 2482.4 2482.4 0 0 1 11.8 29.6l5.8 15z"/><path fill="#FDFEE6" d="M427.6 23.7c3.1-.8 5.2 3 2.9 5.2L21.8 407.6a3 3 0 0 1-5-1.5 192 192 0 0 1-3.2-18.7c-.3-2-2.9-16.6-.2-18.5 89.1-63.6 83.7-138.8 19-218.7-1.4-1.6 1.5-7.4 2-8.6l3.2-8.5a2272.4 2272.4 0 0 1 6.7-17A2726.5 2726.5 0 0 1 58 82a2727 2727 0 0 1 14.2-33.8 2511.6 2511.6 0 0 1 7.3-16.8l3.6-8.4c.9-1.8 2-7.5 5.3-6.4C146.5 36 210.2 42.4 268.8 14c.8-.3 1.4-.3 2.1 0 50.5 24.4 104.8 23.2 156.8 9.7z"/><path fill="#D7BD5E" d="M95.3 491.4a19.5 19.5 0 0 0 8.6-4.7c3-2.8 4.8-5.7 5.2-8.8.5-3-.4-5.7-2.6-8-2.7-3-8-4.2-16.1-3.7h-.1a5.7 5.7 0 0 1-.6 0c-11.6.8-19.4-.9-23.2-5a18.9 18.9 0 0 1-4-6.8c-1-2.6-1.4-5.4-1.3-8.3.2-4.4 1-8.4 2.5-12 1.5-3.6 3.7-6.7 6.4-9.3 2-1.8 3.8-2.9 5.5-3.1 1.6-.3 3 .3 4.3 1.6.4.5.9 1.3 1.2 2.4.4 1 .8 2.4 1.1 4a23.7 23.7 0 0 0-7.4 4.5c-3.3 3-5.1 6.2-5.6 9.4s.5 6.1 3 8.7c1.4 1.6 3 2.7 5 3.3s4.8.7 8.5.6l2.4-.1c12.5-.5 20.6 1.3 24.4 5.4 1.5 1.5 2.6 3.3 3.5 5.3s1.4 4.3 1.7 6.8a25.8 25.8 0 0 1-1.8 12c-1.5 4-4 7.4-7.2 10.4-2.1 2-4.1 3.2-6 3.5-1.8.2-3.4-.4-4.8-1.9a8.9 8.9 0 0 1-1.6-2.5c-.4-1-.8-2.3-1-3.7zm46-32.5a92 92 0 0 0 4.2 4.7c3.2 3.5 6 6.2 8.5 8.2a25 25 0 0 0 6.6 4c-.6 1.7-1.2 3-1.8 4.1s-1.4 2-2.2 2.8c-1.1 1-2.2 1.5-3.3 1.2-1-.2-2.4-1.2-4-2.9a526 526 0 0 1-12-14c-6.3-7.4-12-13.9-17-19.2-5.2-5.7-9.1-9.6-11.9-12-2.7-2.2-5.2-4-7.4-5a16 16 0 0 1 2.9-3.6c1.3-1.2 2.7-1.8 4.1-1.8s2.8.8 4.2 2.1a30.4 30.4 0 0 1 3-8.8c1.5-2.8 3.3-5 5.3-7a24.5 24.5 0 0 1 35.3 1.5 27 27 0 0 1 7.6 19.9c-.2 7.6-3 14-8.6 19a23.3 23.3 0 0 1-13.6 6.7zm-5-5.7c2.6-.5 5-1.2 7.3-2.2a22.2 22.2 0 0 0 6-4c4-3.7 6-8 6.2-13.1.1-5-1.7-9.6-5.5-13.7-3.9-4.2-8.2-6.5-13-6.8-4.7-.4-9 1.3-13 4.9a21.2 21.2 0 0 0-4.3 5.9c-1.2 2.4-2.1 5-2.8 8a1250.3 1250.3 0 0 0 19 21zm65.4-42.8c-6 5.6-12.5 8.2-19.7 8s-13.5-3.4-19-9.2a27.4 27.4 0 0 1 2.1-41c5.8-5.3 12.2-7.8 19.4-7.6 7.1.2 13.3 3.1 18.5 8.7a30.1 30.1 0 0 1 7.6 16 27.9 27.9 0 0 1-9 25zm-4.8-6c4.1-3.9 6.2-8.4 6.3-13.7s-2-10.2-6.2-14.6c-4-4.3-8.6-6.6-13.7-7s-9.8 1.5-13.9 5.4c-4.2 4-6.3 8.5-6.3 13.7s2.2 10.2 6.5 14.9c3.9 4.1 8.4 6.3 13.5 6.6 5.2.2 9.8-1.6 13.8-5.3zm11.2-59.2c-.6-4.5-.7-8.2-.2-11.1.5-3 1.6-5.3 3.3-6.8 1.4-1.4 3-2 5-2a6 6 0 0 1 6.2 5.3c.2 1.4 0 3-.3 5a8.4 8.4 0 0 0-3.9-1.2c-1 0-2 .4-2.9 1.2-1.2 1.2-2 3-2.2 5.6-.2 2.5.2 5.6 1 9.2a107.4 107.4 0 0 0 3 3.9 75.6 75.6 0 0 0 3.2 3.6c3.7 4 7 7 9.8 9.2 2.8 2.3 5.5 3.8 8 4.6-.6 1.5-1.2 2.9-2 4a14.2 14.2 0 0 1-2.5 3.2c-1.2 1.2-2.4 1.7-3.5 1.5s-2.5-1.3-4.2-3.2l-7.2-8.5c-4-5-8-9.5-11.8-13.5-3-3.3-5.5-5.7-7.4-7.3a25.2 25.2 0 0 0-5.7-3.5 13.3 13.3 0 0 1 2.6-3.4c1.5-1.4 3-2 4.3-2 1.4 0 2.8.8 4.2 2.3l1.2 1.4 2 2.5zm24-23.2-1.8 1.7a49.2 49.2 0 0 1-1.4 1.5c-1 1-2 1.5-2.6 1.6-.7 0-1.4-.3-2.1-1l-1-1.4c-.3-.5-.6-1.2-.8-2a30.3 30.3 0 0 1 2.2-2 92.9 92.9 0 0 0 3.5-3.5 43.6 43.6 0 0 1-1.2-1.3 42.3 42.3 0 0 0-1.1-1.3c-1.9-2-3.7-3.7-5.4-5a22 22 0 0 0-5-3l1.8-4c.6-1 1.2-1.9 1.9-2.5 1-1 2-1.3 3.2-1s2.3 1 3.7 2.5l5.4 6.5a650.5 650.5 0 0 1 2.6 3.2 107.4 107.4 0 0 1 6.6-7.3c.9-.8 1.6-1.2 2.3-1.3.7 0 1.3.3 2 1 .3.4.7 1 1 1.8.3.8.6 1.8.8 3a22.2 22.2 0 0 0-5.2 3.9l-1.6 1.6-2.2 2.2a792 792 0 0 0 14.7 17.1 29 29 0 0 0 8 6.8c2 .8 3.7.6 5.2-.8.4-.4.8-.9 1-1.4.4-.6.6-1.3.8-2l1.7.9a5.7 5.7 0 0 1 1.2.9 5.2 5.2 0 0 1 1.3 4.5 8.7 8.7 0 0 1-2.9 5c-2.7 2.6-5.7 3.6-8.7 3s-6.4-2.9-10-6.7l-7.7-9A1371.2 1371.2 0 0 0 232 322zm16.5-19.8c-.7-2.8-1-5-.8-6.7s.5-2.9 1.3-3.6c1.2-1.1 3-1.3 5.5-.6 2.4.7 7.3 3.1 14.6 7.3l4.7 2.6c12 6.9 18.3 10 19 9.4.5-.5.6-1.9.3-4.2s-.8-5.4-1.8-8.8c-1.5-6-3.3-11-5.1-15a38 38 0 0 0-6.4-10 17.6 17.6 0 0 0-5-3.7 15 15 0 0 1 2.6-3.4c1.8-1.7 3.3-2.5 4.7-2.6 1.3 0 2.7.7 4 2 2.4 2.7 4.7 6.9 7 12.6a126.7 126.7 0 0 1 7.5 35.6c-.1 3-1 5.2-2.4 6.6-2.3 2.1-8 .5-17.4-4.9a1544 1544 0 0 0-7.6-4.2c-6-3.3-11-5.6-14.9-7s-7.2-1.8-9.8-1.4zm97.3-43c1.3.2 2.3.5 3.1.8a6 6 0 0 1 2 1.4c1.4 1.4 1.4 3.6.2 6.4a27.9 27.9 0 0 1-6.8 8.8 26.8 26.8 0 0 1-19.1 8.3 25.8 25.8 0 0 1-18.3-9.3c-5.6-6-8.5-12.6-8.6-19.7s2.6-13.2 8.1-18.3c4.2-4 8.8-6 13.8-6s9.3 1.8 12.8 5.6c2.8 3 3.6 6.2 2.6 9.6a34 34 0 0 1-9.7 12.5 114.6 114.6 0 0 1-6.3 5.4 111.3 111.3 0 0 1-6.5 5l.5.5c3.8 4 8 6.2 12.5 6.4 4.6.2 8.9-1.6 13-5.3 1.8-1.8 3.3-3.7 4.5-5.7a19.6 19.6 0 0 0 2.3-6.4zm-36.6 5.4c2-1.3 4-2.8 6.2-4.6a127.8 127.8 0 0 0 6.7-5.9c3.2-3 5.1-5.2 5.6-6.8.5-1.6 0-3.2-1.4-4.8a9.6 9.6 0 0 0-7.6-3.3c-2.9 0-5.7 1.4-8.5 4-3 2.8-4.6 6-4.8 9.8a19 19 0 0 0 3.8 11.6zm34.1-45.1c-.6-4.5-.7-8.2-.2-11.2.5-3 1.6-5.2 3.3-6.8 1.4-1.3 3-2 5-2s3.4.7 4.6 2c.9.9 1.4 2 1.6 3.4.2 1.4.1 3-.3 5a8.4 8.4 0 0 0-3.8-1.2c-1.1 0-2.1.4-3 1.2-1.2 1.2-2 3-2.1 5.6-.3 2.5 0 5.6 1 9.2a108.3 108.3 0 0 0 3 3.8 76.1 76.1 0 0 0 3.2 3.7c3.6 4 6.8 7 9.7 9.2s5.5 3.8 8 4.6c-.6 1.5-1.2 2.8-2 4s-1.5 2.3-2.4 3.2c-1.3 1.2-2.5 1.6-3.5 1.4s-2.5-1.2-4.3-3.1L354 243c-4-5-8-9.5-11.7-13.5a78 78 0 0 0-7.5-7.3 25.1 25.1 0 0 0-5.6-3.5 13.3 13.3 0 0 1 2.5-3.4c1.5-1.4 3-2 4.3-2s2.8.8 4.2 2.2l1.2 1.5a260.6 260.6 0 0 1 2 2.5zM413 197c1.2.2 2.2.5 3 .8s1.6.9 2.1 1.4c1.3 1.4 1.4 3.5.2 6.4a27.9 27.9 0 0 1-6.9 8.8c-6 5.7-12.4 8.4-19 8.2s-12.8-3.2-18.4-9.2c-5.6-6-8.4-12.7-8.5-19.7s2.6-13.2 8-18.3c4.3-4 8.9-6 13.9-6s9.2 1.8 12.7 5.6c2.8 3 3.7 6.2 2.6 9.6A34 34 0 0 1 393 197a115 115 0 0 1-6.2 5.4 112.5 112.5 0 0 1-6.6 5l.5.5c3.8 4 8 6.2 12.6 6.4 4.5.2 8.8-1.6 12.9-5.3 1.9-1.8 3.4-3.7 4.5-5.7a19.5 19.5 0 0 0 2.3-6.4zm-36.7 5.3a79.2 79.2 0 0 0 13-10.4c3.2-3 5-5.3 5.6-6.9.5-1.6 0-3.1-1.4-4.7a9.6 9.6 0 0 0-7.7-3.4c-2.9.2-5.7 1.5-8.5 4.1-3 2.8-4.5 6-4.7 9.8a19 19 0 0 0 3.7 11.5zm18.4-67.6c1.3 1.4 2 3.2 1.9 5.1-.1 2-1 3.6-2.5 5.1a6 6 0 0 1-4.4 1.8c-1.5 0-2.8-.7-4-2a7 7 0 0 1-2-5.2 7 7 0 0 1 2.3-5c1.3-1.2 2.8-1.8 4.4-1.8s3 .7 4.3 2zm45.9 48.8c-.5 1.6-1.1 3-1.8 4.1-.7 1.2-1.5 2.2-2.4 3-1.3 1.2-2.4 1.7-3.5 1.4s-2.6-1.5-4.6-3.6l-7.1-8.3c-3.7-4.4-6.9-8.1-9.7-11.1-3-3.3-5.6-5.8-7.8-7.5a25 25 0 0 0-6.3-3.8c.4-1.5 1-2.8 1.7-4s1.5-2.3 2.5-3.2c1.2-1.1 2.2-1.6 3.2-1.4s2.2 1 3.7 2.7l6 7.1c3.6 4.3 7.2 8.4 10.6 12.2 3.3 3.4 6.2 6.2 8.6 8.2 2.5 2 4.8 3.3 6.9 4.2zm-8.9-44.5a1425.3 1425.3 0 0 1 13.4 15.2c3.2 3.3 5.9 6 8.2 7.8s4.4 3.1 6.3 3.9a23 23 0 0 1-1.7 4 12.4 12.4 0 0 1-2.3 2.9c-1.2 1-2.3 1.5-3.4 1.2s-2.6-1.5-4.6-3.6c-.4-.5-2.6-3-6.3-7.7a204 204 0 0 0-19.5-20.9 31.7 31.7 0 0 0-6.3-4 17.8 17.8 0 0 1 2.8-3.8 6 6 0 0 1 4.3-1.8c1.5 0 3 .7 4.4 2 .6-3.2 1.6-6.2 3-9 1.4-2.7 3.2-5 5.3-7a19 19 0 0 1 8.5-4.7c3-.8 6-.6 9 .4 2 .7 4 1.8 6 3.3a72.9 72.9 0 0 1 10.9 10.8l3.4 3.8c2.5 2.7 4.8 4.9 7 6.5 2.1 1.6 4 2.6 5.7 3-.6 1.8-1.2 3.2-1.8 4.3-.7 1.1-1.3 2-2 2.7-1.2 1.1-2.4 1.6-3.4 1.4-1.1-.2-2.5-1.2-4.1-3l-6.2-7.1c-3-3.7-5.8-6.8-8-9.3a26.1 26.1 0 0 0-11.7-8.3c-3.4-.8-6.7.2-9.8 3.1-1.6 1.5-3 3.4-4.2 5.8-1.2 2.4-2.2 5-2.9 8.1zM245.1 515.5c-1.6.5-3.3 1.4-5 2.6a55 55 0 0 0-6.4 5.2l-5.5 5.3a68.5 68.5 0 0 1-1.5 1.5l12.9 14.3a32.2 32.2 0 0 0 1.8-1.6l3.1-2.9c2.8-2.6 5-4.8 6.7-6.6s2.8-3.2 3.4-4.2l2 1 1.4 1c1 1.1 1.3 2.1 1 3.2-.2 1-1 2.2-2.5 3.6a299.3 299.3 0 0 1-3.6 3.3 304 304 0 0 0-5 4.4l-2.4 2.3a82.4 82.4 0 0 0-1.5 1.5 551 551 0 0 1 7 7.7 960.6 960.6 0 0 1 8.1 9.2l1-.8a383 383 0 0 0 6-5.4c2.2-2 4-4 5.3-5.7 1.3-1.7 2.3-3.5 3-5.2l3 1.2c.7.4 1.3.9 1.8 1.4 1 1.1 1.4 2.3 1 3.4-.2 1.1-1.4 2.7-3.4 4.6a240.5 240.5 0 0 1-9.2 8.1 207.8 207.8 0 0 0-6.5 6.3l-.8.8c-.7.7-1.4 1-2 1-.6 0-1.3-.5-2.1-1.4l-3-3.5a513.2 513.2 0 0 0-29.9-32.5 63.6 63.6 0 0 0-8-6.9l4-3.7a320.5 320.5 0 0 0 14.5-14.5l1.9-2c1.7-1.5 3-2.4 4-2.6 1-.2 2 .2 2.9 1.2.5.6 1 1.3 1.4 2.2.4.9.8 2 1.1 3.2zm60.7 8.4c.2 3.1-.1 5.8-1 8.1-.8 2.4-2.3 4.5-4.3 6.4-3.4 3.2-7 4.6-10.8 4.2-3.8-.5-7.6-2.7-11.3-6.7a173.6 173.6 0 0 0-9.3-10.6c-1.7-1.9-3.4-3.4-4.8-4.5a15.7 15.7 0 0 0-4.3-2.4l1.5-3.3c.5-.9 1-1.5 1.4-2 1-.9 2-1.2 2.8-1 .8 0 1.8.8 3 2.2 1 1 2.9 3.1 5.5 6.3 2.6 3.2 4.8 5.7 6.6 7.6 3.8 4.1 6.9 6.5 9.3 7.1 2.4.7 4.8 0 7.1-2.2 1.8-1.6 3-3.6 3.6-5.8s1-4.8.6-8a175.1 175.1 0 0 0-3.8-4.4 238.3 238.3 0 0 0-4.5-5c-2.7-2.9-5-5.2-7.2-6.9-2-1.7-4-2.8-5.6-3.4l1.5-3.4a9 9 0 0 1 1.7-2.2c1-.8 1.8-1.1 2.7-.8 1 .2 2.3 1.3 4.2 3.3l5.5 6.3 7.4 8.3a70 70 0 0 0 7.2 7c1.8 1.4 3.5 2.4 5 2.8l-1.6 3.5a8 8 0 0 1-1.5 2c-.9.8-1.8 1-2.7.7s-2.2-1.4-3.9-3.2zm-2.9-36.3-1.4 1.4a41.4 41.4 0 0 1-1.2 1.2c-.8.8-1.5 1.2-2.1 1.3s-1.1-.2-1.7-.8l-.8-1.1a11 11 0 0 1-.7-1.7l.9-.7 1-.9 2.5-2.5a2 2 0 0 0 .3-.3 37.7 37.7 0 0 1-1-1.1 36.2 36.2 0 0 0-5.3-5.2 18 18 0 0 0-4-2.4c.4-1.3.9-2.4 1.4-3.3a8 8 0 0 1 1.5-2c.8-.8 1.7-1 2.6-.9.9.2 1.9 1 3 2.1a176 176 0 0 1 6.6 8 88.8 88.8 0 0 1 2.9-3.5 41.8 41.8 0 0 1 2.5-2.5c.7-.7 1.3-1 1.9-1 .5 0 1 .2 1.6.8.3.3.5.8.8 1.4l.7 2.4a18.4 18.4 0 0 0-2 1.3 28.2 28.2 0 0 0-2.3 2 69 69 0 0 0-3.1 3 645.8 645.8 0 0 0 7.2 8.6l4.8 5.4c2.7 3 5 4.8 6.5 5.5 1.6.7 3 .5 4.2-.6l1-1.2.5-1.6 1.4.7 1 .8c1 1 1.3 2.2 1 3.7a7 7 0 0 1-2.3 4c-2.3 2.1-4.6 3-7.1 2.4-2.5-.5-5.3-2.3-8.2-5.4l-6.3-7.4-8.3-10zm12-40.8c1.1 1.2 1.6 2.6 1.5 4.2s-.7 3-2 4.2a4.9 4.9 0 0 1-3.5 1.5c-1.2 0-2.4-.6-3.4-1.7a5.7 5.7 0 0 1-1.5-4.2c0-1.6.6-3 1.8-4.1a5 5 0 0 1 3.6-1.5c1.4 0 2.5.6 3.5 1.6zm37.4 39.8c-.4 1.3-.9 2.5-1.5 3.4a11 11 0 0 1-2 2.5c-1 1-1.9 1.3-2.8 1-.9-.1-2-1.1-3.7-2.8l-5.8-6.8c-3-3.6-5.6-6.6-7.9-9a61.5 61.5 0 0 0-6.4-6.2 20.4 20.4 0 0 0-5.1-3 14 14 0 0 1 1.4-3.4 11.3 11.3 0 0 1 2-2.6c1-.9 1.9-1.2 2.6-1 .8 0 1.9.8 3 2.1.4.3 2 2.3 5 5.8a243.1 243.1 0 0 0 8.6 10c2.7 2.8 5 5 7 6.6 2 1.6 4 2.8 5.6 3.4zm-7.3-36.2a1090.8 1090.8 0 0 1 11 12.4c2.6 2.7 4.8 4.8 6.6 6.3a21 21 0 0 0 5.2 3.2c-.4 1.3-.9 2.4-1.4 3.3a10 10 0 0 1-1.9 2.4c-1 .8-1.8 1.2-2.7 1-.9-.3-2.1-1.3-3.8-3l-5.1-6.2a231.2 231.2 0 0 0-9-10.4c-2.9-3-5.1-5.2-6.9-6.7s-3.5-2.5-5.2-3.3a14.8 14.8 0 0 1 2.3-3 5 5 0 0 1 3.5-1.6c1.2 0 2.4.6 3.6 1.7.5-2.6 1.3-5 2.5-7.3a21 21 0 0 1 4.3-5.8c2-1.9 4.4-3.2 6.9-3.8s5-.5 7.4.3c1.6.6 3.3 1.5 5 2.7a59.5 59.5 0 0 1 8.7 8.8 161 161 0 0 0 2.9 3.2c2 2.2 3.9 4 5.6 5.2 1.8 1.3 3.3 2.2 4.7 2.5-.5 1.4-1 2.6-1.5 3.5-.5.9-1 1.6-1.6 2.2-1 .9-2 1.2-2.8 1-.9 0-2-.9-3.3-2.3-.9-.9-2.5-2.8-5-5.9s-4.8-5.5-6.7-7.5c-3.6-3.8-6.8-6.1-9.5-6.8s-5.4.2-8 2.6a17 17 0 0 0-3.4 4.7c-1 2-1.8 4.1-2.4 6.6zm47-20.4c-3 .8-5.7 1-8.2.3a13 13 0 0 1-6.4-3.9c-3-3.3-4.4-7-4-11.3a17.2 17.2 0 0 1 9.5-13.8c1.3-.7 2.9-1.3 4.6-1.7 1.7-2.8 3-5 3.6-6.6.6-1.6.9-2.8.7-3.6.8 0 1.5.3 2.2.6a5.6 5.6 0 0 1 1.7 1.2 4 4 0 0 1 1.1 3.7 13 13 0 0 1-2.9 5c1.7.3 3.1.8 4.4 1.4a11.7 11.7 0 0 1 3.3 2.5c2.7 3 3.9 6.5 3.5 10.5-.4 4.1-2.3 7.7-5.7 10.9a26.4 26.4 0 0 1-1.4 1.2l-1.5 1.1c0 .8 0 1.5.2 2 .1.7.4 1.2.7 1.5 1.4 1.5 4.5.8 9.3-2l2.7-1.5c4.7-2.7 8.4-4.1 10.9-4.2s4.8 1 6.9 3.3c3 3.2 4 7.2 3.2 12-1 4.7-3.6 9.2-8 13.3-4.3 3.9-8.4 6-12.4 6.6-4 .5-7.5-.8-10.2-3.7-2-2.1-3-4.5-3.3-7.2s.3-5.7 1.7-8.9c-1 0-1.8 0-2.5-.3a4.5 4.5 0 0 1-1.8-1.2 6.4 6.4 0 0 1-1.5-2.9c-.3-1.1-.4-2.6-.4-4.3zm3.4-8.6c2.2-2 3.3-4.2 3.5-6.7.2-2.6-.6-4.8-2.3-6.7-1.9-2-4-3-6.5-3a10 10 0 0 0-7 3c-2.1 2-3.4 4.3-3.6 6.8-.3 2.4.5 4.7 2.3 6.6 1.9 2 4 3 6.6 3s5-1 7-3zm8 16.8c-1 2.2-1.5 4.3-1.4 6.1 0 1.9.7 3.4 2 4.8 1.8 2 4 2.7 6.9 2.3 2.8-.3 5.6-1.8 8.4-4.4 2.7-2.6 4.4-5.1 5.1-7.8s.3-4.8-1.3-6.5c-2.3-2.5-8.7-.8-19 5l-.7.5zm42.2-48c1 .1 1.8.3 2.5.6s1.2.7 1.6 1.2c1.1 1.1 1.1 2.8.1 5.1s-2.8 4.7-5.5 7.3c-5 4.6-10.2 6.8-15.6 6.7a21 21 0 0 1-15-7.6c-4.5-5-6.8-10.3-6.9-16s2.1-10.8 6.6-15c3.4-3.1 7.2-4.8 11.3-4.8 4 0 7.5 1.5 10.4 4.6 2.3 2.4 3 5 2.1 7.7s-3.5 6.2-7.9 10.3a94.2 94.2 0 0 1-5 4.4 90.8 90.8 0 0 1-5.4 4l.4.4c3 3.4 6.5 5 10.2 5.2s7.2-1.3 10.5-4.3c1.5-1.4 2.8-3 3.7-4.6s1.5-3.4 1.9-5.2zm-29.9 4.3a63.8 63.8 0 0 0 5-3.7 103.4 103.4 0 0 0 5.6-4.8c2.6-2.4 4-4.2 4.5-5.5.4-1.3 0-2.6-1.2-4a7.8 7.8 0 0 0-6.2-2.7c-2.3.1-4.7 1.2-7 3.3a11.3 11.3 0 0 0-3.8 8c-.1 3 1 6.2 3.1 9.4zm29-36.7a1068.9 1068.9 0 0 1 6.8 7.7l4.1 4.7c2.6 2.8 4.8 4.9 6.6 6.4a21 21 0 0 0 5.2 3.2c-.4 1.3-.9 2.3-1.4 3.2a10 10 0 0 1-1.8 2.4c-1 .9-2 1.2-2.8 1-.8-.2-2.1-1.2-3.7-3l-5.2-6.2-9-10.4a73 73 0 0 0-6.9-6.6 25.7 25.7 0 0 0-5.2-3.4 15 15 0 0 1 2.3-3 5 5 0 0 1 3.5-1.5c1.2 0 2.4.5 3.6 1.6a26.6 26.6 0 0 1 2.5-7.3 21 21 0 0 1 4.3-5.7c2.1-2 4.4-3.3 7-3.9 2.4-.6 4.9-.5 7.3.3 1.6.6 3.3 1.5 5 2.8a59.5 59.5 0 0 1 8.7 8.8l2.9 3.1c2 2.2 3.9 4 5.6 5.2 1.8 1.4 3.4 2.2 4.7 2.6a26 26 0 0 1-1.5 3.4c-.5 1-1 1.6-1.6 2.2-1 .9-2 1.3-2.8 1.1-.9-.1-2-1-3.3-2.4l-5-5.8a217 217 0 0 0-6.7-7.6 21.3 21.3 0 0 0-9.5-6.7c-2.8-.7-5.4.1-8 2.5a17 17 0 0 0-3.4 4.7c-1 2-1.8 4.2-2.3 6.6z"/><path fill="#047404" d="M220.8 186.5c-7 2.2-9.5 1-13-6.2a76.7 76.7 0 0 0-21.6-23.6c-6.2-3.8-21.2-9.4-22.3-8.3-.2.1 1.9 2.7 4.6 5.7a43.9 43.9 0 0 1 11 18.2 32 32 0 0 1-.8 20.7 16 16 0 0 1-6.4 8.7c-6.9 5.6-15.1 7.4-23.2 5-4.7-1.3-5.7-1.2-14.2 2-10.4 3.8-20.3 2-25.7-4.8-7.7-9.6-7-26.6 1.8-42.6 1.2-2.2 2-4.1 1.6-4.4-.2-.3-2.8.3-5.7 1.4a45.7 45.7 0 0 1-32.6 1.8c-10-3.9-15.6-12-14.9-21.7.4-5.7 3-11.8 7.2-16.5 3.4-4 3.7-4.6 4.2-10.4.9-9.5 3-14.3 8.6-19.5 4-3.7 5.2-4.4 8.7-5.2a34 34 0 0 1 24.3 4.5c4 2.3 13.4 11.8 17.7 18 3.1 4.4 2.6 5.2 4.6-6.7 2.3-13.2 8-25 15.6-32 11.4-10.7 25.8-11.3 35-1.4 2.8 3 3.8 4.8 5.2 9.6l1.8 5.8 5.2 4c8.4 6.6 11.6 12 11.7 19.2 0 4.4-.8 7.1-3.5 11.7-5.2 9-16 15.5-29.8 18.2-2.5.4-5.5 1-6.6 1.4-1.9.5-1.9.6 0 1.2a122.2 122.2 0 0 1 22.4 8c8.1 4.1 15.5 9.6 25 18.7 5.2 4.9 10 10 10.8 11.1 1.4 2.2 1.3 2.3-1.6 5a19 19 0 0 1-5 3.4z"/></svg>