<svg version="1" xmlns="http://www.w3.org/2000/svg" width="845.333" height="845.333" viewBox="0 0 634.000000 634.000000"><path d="M491 33.2c-3.9 3.5-100 92.2-213.5 197.3-125.6 116.3-206.7 192-207.1 193.4-1.1 3.7 1 10 7.5 23.5 17.5 36 43.7 62.1 81.7 81.4 9.6 4.8 11.6 5.5 13.9 4.7 1.4-.6 78.6-71.4 171.5-157.3l168.8-156.4 2.2-6c5.7-15.7 20.6-40.9 33.6-57 3-3.7 5.4-7.6 5.4-8.6 0-2.3-22.1-57.7-36.9-92.7-13.7-32.1-14.9-33.1-27.1-22.3zm9.7 81.3c2.1.9 9.2 7 16.4 14 7 6.9 13.2 12.5 13.8 12.5.6 0 1.1.6 1.1 1.4 0 2.2-4 6.6-6 6.6-1.1 0-5.9-4.5-11.9-11.4-5.5-6.3-11.6-12.4-13.6-13.6-7.4-4.6-14.9-1.7-19.1 7.4-1.3 2.8-2.4 5.8-2.4 6.6 0 2.3 18.2 22.1 22.8 25 2.3 1.4 4.2 3.1 4.2 3.7 0 .7-1.2 2.7-2.8 4.3-1.9 2.2-3.2 2.9-4.5 2.5-.9-.4-5.7-5.5-10.6-11.4-9-10.7-20-21.8-23.6-23.8-1.9-1.1-1.9-1.2-.1-3.2 2.5-2.7 5.1-3.5 7.6-2.1 1.7.9 2.1.8 2.6-.7 1.5-5.1 6.1-12.7 9-14.9 5.7-4.4 11.3-5.3 17.1-2.9zm-59.5 20.2c2.2 2 2.3 7 .1 9.5-2.3 2.5-6.8 2.3-8.7-.4-2.2-3.1-2-6.4.4-8.8 2.4-2.4 5.7-2.6 8.2-.3zm13.6 17c1.6 1.6 7.2 7.7 12.5 13.8 5.3 6 11.9 12.6 14.6 14.5 2.8 1.9 5 4.1 5.1 4.7 0 .7-1.3 2.7-2.8 4.4-2.4 2.7-3.1 3-4.9 2.1-1.1-.6-7-6.9-13.1-13.9-10-11.5-18.2-19.3-20.4-19.3-.4 0-.8-.6-.8-1.4 0-1.7 4.7-7.6 6.1-7.6.5 0 2.2 1.2 3.7 2.7zm-8.7 23.1c4.8 5.1 5 8.4 1 13.8-3 4.1-11.3 12.2-17 16.5l-3.4 2.5 3.6 2.8c9.8 7.5 21.9 3.9 27.7-8.1 1.4-2.9 2.8-5.2 3.1-5.3.4 0 1.7.8 2.9 1.8 3.5 2.8 1.9 7.4-4.6 13.9s-12.1 9.2-19.2 9.3c-6.7 0-10.9-1.8-16.7-7.1-6.9-6.4-9.7-11.8-10.3-19.9-.5-7.9 1.5-13.4 7-18.7 5.4-5.2 8.6-6.4 15.7-6 6 .3 6.6.6 10.2 4.5zm-42.7 27.4c.9 1.2 1.6 3.3 1.6 4.6 0 2-.4 2.3-2.2 1.9-5.1-1.4-8.3 3.7-7.3 11.5.6 4.3 1.6 5.8 8.2 12.9 4.2 4.4 9.5 9.1 11.9 10.5 2.4 1.4 4.4 3 4.4 3.4 0 1.8-5.3 7-7 7-1.2 0-6.3-5.1-13.3-13.3-11.2-12.9-17.4-19.3-21.3-21.6-1.8-1-1.8-1.2.9-3.6 1.5-1.4 3.2-2.5 3.7-2.5s2.5 1.4 4.5 3.2l3.6 3.1-.7-2.7c-.9-3.9.4-11.1 2.7-14 2.7-3.4 8.1-3.6 10.3-.4zm-28.5 31.3c4.1 2.1 8.1 7.2 8.1 10.3 0 5.1-8.1 14.8-18.8 22.5l-4.4 3.2 3.1 2.7c4.4 3.9 9.6 5.3 14.9 3.8 5.3-1.4 11.6-6.9 13.9-12.1 1.8-4.2 4.6-5 6.6-1.8 1.6 2.5.1 6.3-4.8 11.7-8.5 9.4-20.4 12.7-30 8.3-5-2.2-12-9.2-14.7-14.5-2.5-4.9-3.4-13.7-1.9-19.2 1.4-5.2 7.4-12.2 12.5-14.5 4.9-2.2 11.7-2.4 15.5-.4zM333 265c8.2 8.2 17.8 47.7 13 53.5-2.3 2.8-6.4 1.6-23.5-7.1-10.7-5.4-18.7-8.8-21.5-9.1-2.5-.3-4.8-1.1-5.2-1.7-1.3-1.9-.9-7.3.7-8.6 2.5-2.1 7-.4 23.9 8.9 8.9 4.9 17 9.1 18.1 9.3 1.8.3 2-.2 1.7-4.6-.4-5.5-4.4-19-7.4-24.9-1.1-2.2-3.8-5.9-6.1-8.4l-4.2-4.5 2.8-2.4c3.4-2.9 5.1-3 7.7-.4zm-57 40l5.3 6.1 3.4-4.1c3.9-4.6 7-5.2 7.9-1.6.4 1.9-.3 3.2-3.7 6.4l-4.3 3.9 6.6 8c13 15.6 18.7 19.1 22.3 14l1.6-2.2 1.9 2.3c3.7 4.5-1.5 11.6-8.5 11.6-4.6 0-9-3.7-19.7-16.5-5-6-9.4-10.9-9.8-10.9-.4 0-1.5.9-2.5 2-2.2 2.4-3.8 2.5-5.5.5-1.1-1.3-.9-2 1.4-4.4 2.6-2.7 2.7-3 1.2-5.3-.9-1.3-3.6-3.9-6.1-5.8-2.5-1.8-4.5-3.7-4.5-4.1 0-1.6 4.3-5.9 6-5.9 1 0 4.2 2.7 7 6zm-9.2 21.6c1.5 1 2.2 2.5 2.2 4.8 0 3-.2 3.2-2.9 2.8-2.1-.3-3.3.2-4.5 1.9-1.8 2.6-2.1 9.4-.6 13.3 1.3 3.5 13.9 16.6 18.9 19.6 2.2 1.4 4.1 3.2 4.1 4.1 0 2.1-4.5 6.9-6.4 6.9-.8 0-4.1-3-7.3-6.7-15.9-18.3-21.8-24.6-24.9-26.6-4-2.6-4.2-4-1.2-6.1 3.1-2.2 4.1-2 7.7 1l3.1 2.6v-5.1c0-10.7 5.7-16.8 11.8-12.5zm-25.3 36.8c18.3 8.6 21.6 33.4 6.3 47.1-5 4.5-12.2 7.5-17.8 7.5-9.2 0-19.3-6.7-24.5-16.1-12.1-22.3 13.2-49.3 36-38.5zm-47 44c5.2 2.4 10.2 7.2 13.2 12.9 1.3 2.3 1.8 5.5 1.8 11.7 0 7.5-.3 9.1-2.7 13.2-3.4 5.7-9 10.5-14 12-2.1.6-3.8 1.5-3.8 1.9 0 1.5 9.9 11.5 13.9 13.9 4.7 2.9 4.9 3.9 1.7 7.7-2 2.4-2.8 2.6-4.9 1.8-1.4-.6-8.3-7.8-15.3-16-13.2-15.5-27.6-30.6-32.9-34.3l-3-2.2 2.8-2.5c2.3-2 3.2-2.3 5.3-1.5 3.3 1.3 3.4 1.3 3.4-.5 0-2.6 4.6-10.8 7.7-13.7 7.2-6.8 17.9-8.6 26.8-4.4zm-67.7 15.9c1.8 2.1 2.6 6.7 1.2 6.7-2.1 0-8 4.9-10.1 8.4-2.3 3.7-2.4 7.7-.4 11.6 2.5 4.7 5.7 5.7 20 6.2 16.3.5 21.1 2.3 24.6 9.5 2.7 5.6 2.9 14 .5 19.7-5 11.8-15.1 17.3-18.4 10.1-1.7-3.7-1.6-4.1 1.8-5.5 1.6-.7 4.6-3 6.5-5.1 2.8-3.1 3.5-4.7 3.5-8 0-8.8-2.5-10.1-20.5-10.9-10.4-.5-15-1.1-17.7-2.4-6.8-3.3-10.2-12-8.6-22.1 1.1-7 2.9-10.9 7.6-15.8 3.8-3.9 8-4.9 10-2.4z"/><path d="M426.4 179.2c-6.1 4.7-8 9.7-6.3 16.4 1.8 7 3.1 7.3 9.4 2.4 7.6-5.8 12.5-11.5 12.5-14.4 0-5.9-10-8.7-15.6-4.4zM360.5 240.9c-6.7 4.1-9.1 9.6-7.4 16.7 2.1 8.4 3.8 8.1 15.4-2.7 7.5-7 8.4-10.3 3.9-13.8-3.3-2.6-8-2.7-11.9-.2zM221.5 370.7c-10.6 5.5-14.2 16.1-9 26.2 6.3 12.6 19.7 16.5 29.7 8.8 5.5-4.2 7.8-8.9 7.8-15.5 0-8.2-4.5-15.3-12.2-19.3-4.5-2.3-12.1-2.4-16.3-.2zM176.5 414.4c-4.1 1.8-8.9 7.4-11 13l-1.8 4.6 9.8 10.6c10.4 11.2 10.1 11 16.8 8.5 3.8-1.5 9.9-7.2 11.3-10.8 6.3-14.9-10.6-32.2-25.1-25.9zM206.5 64.4c-7.5 3.4-14.6 10.9-18.8 19.7-3.5 7.4-6.7 18.3-6.7 23 0 5-1.5 5-5.2.1-6-7.7-13.9-14.9-19.7-17.8-6.5-3.2-16.8-4.3-22.6-2.4-8.6 2.8-15.5 13.7-15.5 24.2 0 4.2-1.9 8.6-4.5 10.8-3.6 3-6.8 11.3-6.9 17.5-.1 21 24.1 28.9 51.8 17 1.5-.7 1.8-.5 1.3.6-.3.8-2.3 5.2-4.3 9.9-3.1 6.9-3.9 10-4.2 16.5-.6 10.7 1 15.9 6.2 21.1 5.5 5.6 10.9 7.1 19.1 5.4 3.2-.6 7.2-1.9 8.9-2.7 2.9-1.5 4.4-1.5 15.2.3 9.8 1.5 21.2-5.1 25.4-14.8 1.9-4.4 2.2-6.4 1.7-12.8-.3-4.6-1.3-9.3-2.6-12.2-2.2-4.8-8.8-14-12.4-17.1-1.1-1-1.7-2-1.4-2.3.8-.8 9.9 2.3 17.7 6 8.4 4 21.2 16.6 25.5 25.1 3.8 7.5 6.2 8.8 12.3 7 2.4-.8 5.5-2.4 6.8-3.6 2-1.9 2.2-2.5 1.1-4.5-1.6-3-19.9-20.2-25.9-24.2-6.6-4.5-18-9.9-26.3-12.4-7.8-2.3-7.7-2.4 4-5.2 17.7-4.2 29.5-15.7 29.5-28.7 0-8.2-2.2-11.5-14.3-21.5-1.4-1.2-3.1-4.3-4.1-7.7-4.1-14-18.1-20.4-31.1-14.3zM400.4 341.2c-174.6 161.7-210.7 195.2-211.8 197-.8 1.3-.7 2.1.1 2.9.6.6 11 4.5 23 8.6 47.8 16.3 61.7 22 75.4 30.8 8.8 5.7 19.4 15.7 24.5 23.1 2.1 3 4.5 5.4 5.4 5.4.9 0 3.4-2.5 5.5-5.5 8.4-12.2 25.5-25.1 44.5-33.6 5.8-2.6 24.5-9.5 41.5-15.4 48.4-16.6 66.8-24.7 87.2-38.2 45.1-29.7 71.7-75.3 78.3-134.2.6-5.1.8-10.2.5-11.1-.3-1-5.5-5.8-11.6-10.6-33.8-26.8-52.3-56.6-55.9-89.9-.6-5-.9-12.2-.8-16 .3-6.4.1-7-1.8-7.3-1.6-.2-26.9 22.6-104 94zm112-2.3c1.6 1.1 6.6 5.8 11 10.4 4.5 4.6 9.1 9 10.4 9.8l2.4 1.4-2.2 2.8c-1.2 1.5-2.7 2.7-3.4 2.7-.7 0-5.5-4.6-10.7-10.1-10.7-11.6-14.1-13.7-19.2-11.5-3.5 1.4-7 6.1-8.2 10.8-.6 2.5.2 3.8 7.5 11.8 4.5 5 9.5 9.8 11.1 10.7 3.4 2 3.6 3.2 1 6.4-2.7 3.4-4.5 2.1-15.5-10.8-5.3-6.2-11.4-12.5-13.6-13.9-2.2-1.5-4-3-4-3.5 0-1.5 4.6-3.9 6.8-3.7 1.6.2 2.7-.9 4.9-5.2 1.6-3.2 4.2-6.4 6.2-7.7 4.3-2.9 11.4-3.1 15.5-.4zm-31.7 32.4c6.4 5.9 4.4 11.5-7.5 21.5-3.1 2.6-5.9 5.1-6.1 5.7-.8 1.8 6 5.5 10.2 5.5 5.4 0 10.2-3.2 13.6-9.1 2.8-4.9 2.8-4.9 5-3.2 2.6 2.2 2 4.9-2.4 10.1-11.9 14.1-31.7 10-38-7.9-1.9-5.3-1.9-9 0-13.7 3.2-7.6 9.6-12.2 16.8-12.2 4 0 5.3.5 8.4 3.3zm-37.3 21c.8 1.3.7 2.4-.6 4.6-1.6 2.9-1.5 2.9.7 3.5 1.2.3 3.7 2.2 5.4 4.1 2.4 2.7 3.1 4.5 3.1 7.6 0 4.9-2.4 10.3-5.6 12.8-1.3 1-2.4 2.8-2.4 3.9 0 3.7 3.1 3.5 11.1-.7 10.6-5.5 13.7-6 17.7-2.6 7 5.9 6.1 16.1-2.1 24.4-7.5 7.6-14.5 9.8-20.7 6.6-4.4-2.3-6.4-6.8-5.7-13 .5-4.5.3-5.2-1.6-6.1-1.2-.5-2.6-2.4-3.1-4.2-.8-2.9-1.2-3.2-4.8-3.2-8 0-13.8-5.7-13.8-13.8 0-6.9 3.5-11.9 11.7-16.3 1.8-1 3.8-3.4 4.9-5.8 1.9-4.4 3.8-5 5.8-1.8zm-33 38.1c1.9.8 7.9 6 13.4 11.5 5.4 5.6 10.4 10.1 11.1 10.1 1.7 0 1.3 1.6-1.2 4.6-3 3.5-3.6 3.1-13.2-7.9-8.4-9.7-12.5-12.7-16.9-12.7-3.5 0-8.5 4.9-10.4 10.4l-1.4 3.7 7.9 8.6c4.3 4.8 9.4 9.8 11.4 11.3 3.5 2.5 3.6 2.7 2.3 5.2-.7 1.4-2.1 2.8-2.9 3.2-1.9.7-3.3-.6-15.3-14.4-4.5-5.2-9.8-10.6-11.7-12-1.9-1.4-3.5-3-3.5-3.6 0-2.2 2.9-3.7 6-3 2.3.4 3 .2 3-1 0-2.1 3.4-8.6 5.6-10.6 2.9-2.5 7.6-4.8 10.2-4.8 1.2 0 3.8.6 5.6 1.4zm-49 16.2c1.9 1.8 2.1 6.5.4 8.2-2.7 2.7-8.8 0-8.8-4 0-2.1 3.4-5.8 5.4-5.8.8 0 2.2.7 3 1.6zm17.5 20.7c7.3 8.7 15.3 16.6 18.5 18.4 1.6.9 1.7 1.3.6 3.4-3.2 6.1-4.5 5.5-16.1-7.7-5.6-6.3-11.7-12.5-13.5-13.7-3.8-2.5-4.1-3.3-1.8-6.5 2.6-3.7 4.8-2.6 12.3 6.1zm-31.3 6.4l4.1 4.8 2.8-3.3c3.1-3.6 5-4 6.4-1.3.9 1.6.5 2.3-2.4 4.5-1.9 1.5-3.5 3.3-3.5 4 0 .6 3.9 5.3 8.6 10.4 8.8 9.4 11.7 11 14.4 7.7 1-1.2 1.6-1.3 2.6-.4 3.7 3-1 9.9-6.7 9.9-2.6 0-4.3-1.1-8.8-5.8-3.1-3.1-7.7-8.1-10.2-11.1l-4.5-5.4-2.7 1.7c-4.4 2.9-6.4 0-2.7-3.9l2-2.2-2.2-2.4c-1.3-1.3-3.6-3.4-5.2-4.7-2.7-2.1-2.8-2.4-1.6-4.7 2-3.8 5-3.1 9.6 2.2zm-8.4 25c9.7 10.6 20.3 21 21.8 21.5 1.2.4 1.3.9.2 3.2-1.5 3.4-3.8 4.3-6.1 2.2-1.7-1.6-1.9-1.5-2.5 2.6-1.7 10.4-12.1 16.7-20.5 12.3-1.6-.8-6.8-5.7-11.6-10.9-4.8-5.3-9.6-9.8-10.6-10.1-1.1-.4-1.9-1.4-1.9-2.2 0-2 2.9-5.3 4.6-5.3.7 0 4.9 4.2 9.3 9.3 9.5 10.9 12.9 13.7 17.2 13.7 5.3 0 9.9-6.5 9.9-14.2 0-2.1-16.2-19.4-19.1-20.3-1.1-.4-1.9-1.2-1.9-1.8 0-2 3-5.7 4.5-5.7.8 0 3.8 2.6 6.7 5.7zm-48.5 13c1.7 2.5 1.7 2.7-.1 3.7-2.7 1.6-12.7 9.9-15 12.4-1.8 2.1-1.8 2.2 4.4 9.2 3.5 3.8 6.6 7 7 7 .4 0 3.9-3.4 8-7.5 6.9-7.2 7.4-7.5 9.1-5.9 1.1 1 1.9 2.3 1.9 2.9 0 .7-3.4 4.5-7.5 8.5l-7.4 7.3 7.6 8.3 7.5 8.4 5.7-4.9c3.2-2.7 6.6-6.6 7.6-8.5 2.3-4.2 2.5-4.2 5.6-1.7 2 1.6 2.2 2.3 1.4 4.5-1.1 2.8-19.2 19.6-21.2 19.6-.6 0-5.5-5.1-10.9-11.3-5.4-6.1-14.6-16-20.4-21.9l-10.7-10.6 11.1-11.1c6.1-6.1 11.9-11.1 12.8-11.1 1 0 2.5 1.2 3.5 2.7z"/><path d="M463.4 377.4c-2.7 2.7-3.4 4.2-3.4 7.5 0 4.2 1.7 9.1 3.1 9.1 1.9 0 13.5-10.8 14.3-13.3 1.4-3.8-1.5-6.7-6.7-6.7-3.1 0-4.6.7-7.3 3.4zM430.2 408c-3.5 3.5-4.3 6.8-2.6 10.8 2.6 6.2 9.7 7.1 15 1.8 2.6-2.6 3.4-4.2 3.4-7 0-8.2-9.8-11.7-15.8-5.6zM463 431.9c-4.8 1.5-12.8 6-13.4 7.6-2.2 5.7 1.5 11.5 7.3 11.5 9.5 0 19-13.2 13.3-18.3-2-1.8-3.3-2-7.2-.8z"/></svg>