<svg xmlns="http://www.w3.org/2000/svg" viewBox="0 0 358.4 357.6"><path fill="#9c3" d="m232.816 178.028 122.38-29.67c16.087 97.514-47.428 171.674-105.39 194.28-1.13-42.94-4.345-91.368-16.99-164.61zM179.858.12c10.299 27.778 23.662 56.073 41.12 126.855l117.843-29.248C295.48 12.493 211-2.793 179.858.12Zm-10.791 139.865C154.49 79.617 138.117 38.276 125.163 7.467 107.917 11.917.523 51.692.206 181.025Zm10.687 52.189L8.446 234.007C36.721 319.2 118.335 364.41 195.851 356.427c-.602-56.543-6.843-109.442-16.097-164.253Z"/></svg>