<svg width="358.4" height="357.6" version="1.1" viewBox="0 0 358.4 357.6" xmlns="http://www.w3.org/2000/svg">
 <defs>
  <clipPath id="clipPath24">
   <circle cx="272.7" cy="179.2" r="179.2" stroke-width="1.5017"/>
  </clipPath>
 </defs>
 <path transform="translate(-93.505 -.8)" d="m274.43 192.8c4.78 26.965 8.533 54.272 11.264 81.92 2.73 27.648 4.096 55.808 4.096 84.48h-289.79v-98.816zm-274.43 12.288v-204.29h215.55c9.9 22.528 18.773 45.397 26.624 68.608 7.85 23.21 14.677 46.933 20.48 71.168zm344.06 154.11c-0.34-31.06-1.877-61.44-4.608-91.136-2.73-29.696-6.997-59.22-12.8-88.576l218.11-53.248v232.96zm200.7-358.4v70.656l-229.38 56.32c-2.39-9.216-5.205-19.285-8.448-30.208s-6.74-22.016-10.496-33.28c-3.755-11.264-7.595-22.357-11.52-33.28s-7.595-20.992-11.008-30.208z" clip-path="url(#clipPath24)" fill="#9c3" fill-rule="evenodd"/>
</svg>
