<svg viewBox="0 0 539.78 634.31" xmlns="http://www.w3.org/2000/svg"><path fill="#D7BD5E" d="M538.84 362.64c.683.482.953 1.012.941 1.847-.012 1.765-.023 3.517-.048 5.27a134.477 134.477 0 0 1-.117 4.846 141.273 141.273 0 0 1-.271 4.987 176.859 176.859 0 0 1-1.012 10.279 190.998 190.998 0 0 1-1.646 10.68 209.756 209.756 0 0 1-2.305 11.056 223.557 223.557 0 0 1-2.988 11.291 214.394 214.394 0 0 1-3.728 11.396 209.078 209.078 0 0 1-4.493 11.433 201.622 201.622 0 0 1-2.553 5.704 205.87 205.87 0 0 1-2.74 5.634c-.952 1.87-1.94 3.74-2.952 5.587-1.023 1.858-2.082 3.704-3.176 5.539s-2.223 3.658-3.375 5.458a177.708 177.708 0 0 1-3.588 5.339 161.323 161.323 0 0 1-3.787 5.234c-1.306 1.74-2.635 3.446-4.011 5.14s-2.775 3.364-4.21 5.011a172.6 172.6 0 0 1-4.423 4.857 174.207 174.207 0 0 1-9.421 9.279 178.4 178.4 0 0 1-4.986 4.399 191.682 191.682 0 0 1-10.433 8.244 177.944 177.944 0 0 1-5.47 3.882 241.725 241.725 0 0 1-5.609 3.717 224.467 224.467 0 0 1-11.597 6.915 217.715 217.715 0 0 1-5.951 3.199 274.393 274.393 0 0 1-12.138 5.939 308.851 308.851 0 0 1-12.35 5.375 391.974 391.974 0 0 1-12.479 4.894c-2.082.776-4.164 1.54-6.246 2.293a781.27 781.27 0 0 1-9.244 3.258c-4.058 1.4-8.139 2.776-12.22 4.141-2.812.94-5.634 1.882-8.457 2.822-1 .342-1.999.671-2.999 1.012a1113.79 1113.79 0 0 0-5.752 1.952c-1.882.647-3.764 1.306-5.646 1.965a488.025 488.025 0 0 0-5.48 1.976 292 292 0 0 0-10.409 4.01 225.05 225.05 0 0 0-4.939 2.07 207.633 207.633 0 0 0-4.729 2.129 154.416 154.416 0 0 0-4.48 2.188c-1.436.729-2.847 1.47-4.258 2.246a137.61 137.61 0 0 0-4.034 2.341 97.668 97.668 0 0 0-3.799 2.411 93.242 93.242 0 0 0-3.553 2.505 70.668 70.668 0 0 0-3.328 2.576 74.087 74.087 0 0 0-3.105 2.693 71.992 71.992 0 0 0-2.893 2.775c-.93.94-1.823 1.894-2.682 2.882a60.183 60.183 0 0 0-2.506 2.999 74.015 74.015 0 0 0-2.352 3.128 83.836 83.836 0 0 0-2.2 3.271 84.418 84.418 0 0 0-2.058 3.387c-2.917 5.034-5.822 10.068-8.728 15.102-.87 1.482-3.022 1.482-3.881 0-2.905-5.033-5.822-10.067-8.727-15.102a99.52 99.52 0 0 0-2.059-3.387 85.733 85.733 0 0 0-2.199-3.271 76.452 76.452 0 0 0-4.857-6.127 77.79 77.79 0 0 0-2.682-2.882 70.035 70.035 0 0 0-2.894-2.775 73.358 73.358 0 0 0-3.105-2.693 77.476 77.476 0 0 0-3.328-2.576 85.608 85.608 0 0 0-3.564-2.505 97.993 97.993 0 0 0-3.787-2.411c-1.329-.8-2.682-1.588-4.034-2.341a160.765 160.765 0 0 0-4.258-2.246 158.419 158.419 0 0 0-4.481-2.188 240.01 240.01 0 0 0-4.728-2.129c-1.635-.706-3.282-1.4-4.94-2.07a246.04 246.04 0 0 0-5.116-2.023 394.53 394.53 0 0 0-10.786-3.963 765.022 765.022 0 0 0-11.396-3.917 3202.946 3202.946 0 0 0-11.456-3.834c-4.069-1.364-8.15-2.74-12.22-4.141a943.306 943.306 0 0 1-9.245-3.258 563.888 563.888 0 0 1-6.233-2.293 438.49 438.49 0 0 1-6.245-2.388c-2.082-.823-4.164-1.646-6.234-2.506a364.285 364.285 0 0 1-6.21-2.622 322.857 322.857 0 0 1-6.151-2.753 242.42 242.42 0 0 1-6.081-2.881 222.077 222.077 0 0 1-6.045-3.059c-2-1.035-3.987-2.104-5.951-3.199-1.976-1.094-3.929-2.223-5.857-3.375s-3.846-2.329-5.74-3.54a199.445 199.445 0 0 1-5.61-3.717 179.13 179.13 0 0 1-5.469-3.882 192.28 192.28 0 0 1-5.305-4.034 194.561 194.561 0 0 1-5.128-4.21 180.076 180.076 0 0 1-4.987-4.399 177.184 177.184 0 0 1-4.811-4.563 172.335 172.335 0 0 1-4.61-4.716 173.97 173.97 0 0 1-4.422-4.857 167.525 167.525 0 0 1-4.21-5.011 166.09 166.09 0 0 1-4.022-5.14 186.683 186.683 0 0 1-3.788-5.234 185.29 185.29 0 0 1-6.962-10.797 192.917 192.917 0 0 1-6.116-11.126 190.362 190.362 0 0 1-5.292-11.338 198.785 198.785 0 0 1-4.493-11.433 215.923 215.923 0 0 1-3.729-11.396 221.566 221.566 0 0 1-2.999-11.291 222.654 222.654 0 0 1-2.305-11.056 203.623 203.623 0 0 1-1.635-10.68 178.714 178.714 0 0 1-1.012-10.279 162.065 162.065 0 0 1-.4-9.833l-.035-5.27c-.012-.835.259-1.364.941-1.847 1.435-1.011 2.87-2.022 4.305-3.046a263.648 263.648 0 0 0 6.869-5.022 227.482 227.482 0 0 0 6.457-5.08 209.216 209.216 0 0 0 6.045-5.117 195.442 195.442 0 0 0 5.646-5.151 178.603 178.603 0 0 0 5.222-5.187 168.361 168.361 0 0 0 4.822-5.234 155.774 155.774 0 0 0 4.422-5.245 148.085 148.085 0 0 0 4.022-5.293 136.2 136.2 0 0 0 3.623-5.304 117.877 117.877 0 0 0 3.246-5.34c1-1.765 1.953-3.552 2.858-5.375a102.482 102.482 0 0 0 2.494-5.398 108.35 108.35 0 0 0 2.117-5.434 98.897 98.897 0 0 0 1.752-5.481 96.312 96.312 0 0 0 1.399-5.528c.4-1.847.753-3.717 1.047-5.587.282-1.87.518-3.764.694-5.657.165-1.894.282-3.811.341-5.728a95.42 95.42 0 0 0-.024-5.81 99.27 99.27 0 0 0-.364-5.904 114.549 114.549 0 0 0-.729-6.01 109.402 109.402 0 0 0-1.105-6.104 112.71 112.71 0 0 0-1.458-6.21 129.85 129.85 0 0 0-1.846-6.328 138.989 138.989 0 0 0-2.235-6.445 143.83 143.83 0 0 0-2.611-6.54 169.754 169.754 0 0 0-2.999-6.669 214.63 214.63 0 0 0-3.399-6.763 205.76 205.76 0 0 0-3.799-6.869 225.834 225.834 0 0 0-4.787-7.927 274.095 274.095 0 0 0-9.715-14.29 366.011 366.011 0 0 0-5.458-7.28 394.08 394.08 0 0 0-5.869-7.398c-1.235-1.494-2.458-2.999-3.693-4.504-.588-.729-.694-1.341-.353-2.211.682-1.811 1.376-3.634 2.058-5.445 16.926-44.578 35.297-89.154 55.104-133.72a4938.78 4938.78 0 0 1 3.728-8.386c.588-1.341 1.376-1.682 2.752-1.211 2.905.976 5.81 1.952 8.704 2.929a379.176 379.176 0 0 0 12.714 4.034 326.2 326.2 0 0 0 12.456 3.47 318.412 318.412 0 0 0 12.208 2.905c3.976.859 7.962 1.646 11.973 2.341 3.881.682 7.798 1.282 11.714 1.788 3.811.494 7.633.906 11.456 1.223 3.74.317 7.48.541 11.22.67 3.658.129 7.316.176 10.974.129 3.587-.047 7.163-.188 10.738-.423 3.505-.235 6.998-.553 10.491-.964 3.434-.412 6.857-.906 10.256-1.506a171.522 171.522 0 0 0 10.044-2.035 176.087 176.087 0 0 0 9.809-2.576 169.11 169.11 0 0 0 9.597-3.117 168.564 168.564 0 0 0 9.397-3.646 175.003 175.003 0 0 0 9.186-4.187A9122.2 9122.2 0 0 0 268.9.255c.706-.341 1.27-.341 1.976 0l4.445 2.188a175.003 175.003 0 0 0 9.186 4.187 165.878 165.878 0 0 0 9.397 3.646 169.143 169.143 0 0 0 9.598 3.117c3.246.953 6.516 1.812 9.81 2.576 3.328.776 6.669 1.458 10.032 2.035 3.411.6 6.833 1.094 10.268 1.506a204.533 204.533 0 0 0 21.218 1.387c3.658.047 7.328 0 10.985-.129 3.74-.129 7.48-.353 11.209-.67a248.65 248.65 0 0 0 11.468-1.223 262.328 262.328 0 0 0 11.714-1.788 289.718 289.718 0 0 0 11.962-2.341 311.909 311.909 0 0 0 12.22-2.905 330.517 330.517 0 0 0 12.455-3.47 372.215 372.215 0 0 0 12.703-4.034c2.905-.977 5.81-1.953 8.703-2.929 1.388-.471 2.176-.129 2.764 1.211 1.247 2.799 2.482 5.599 3.729 8.386 19.807 44.564 38.166 89.141 55.091 133.72a930.83 930.83 0 0 1 2.07 5.445c.329.871.235 1.482-.353 2.211-1.235 1.505-2.458 3.011-3.693 4.504a398.216 398.216 0 0 0-5.869 7.398 291.682 291.682 0 0 0-5.457 7.28 274.133 274.133 0 0 0-5.058 7.198 228.09 228.09 0 0 0-4.657 7.092 226.76 226.76 0 0 0-4.787 7.927 202.996 202.996 0 0 0-3.799 6.869 189.851 189.851 0 0 0-3.399 6.763 187.908 187.908 0 0 0-3.011 6.669 155.922 155.922 0 0 0-2.611 6.54 154.527 154.527 0 0 0-2.223 6.445 124.93 124.93 0 0 0-3.317 12.538 109.326 109.326 0 0 0-1.095 6.104c-.306 2-.541 3.999-.729 6.01a99.288 99.288 0 0 0-.377 5.904 106.196 106.196 0 0 0-.012 5.81c.06 1.917.165 3.834.342 5.728a90.218 90.218 0 0 0 3.139 16.772 98.071 98.071 0 0 0 1.753 5.481 107.764 107.764 0 0 0 2.117 5.434 101.3 101.3 0 0 0 2.493 5.398 101.868 101.868 0 0 0 2.858 5.375 116.082 116.082 0 0 0 3.246 5.34 113.596 113.596 0 0 0 3.622 5.304c1.294 1.8 2.635 3.564 4.022 5.293a154.631 154.631 0 0 0 4.423 5.245 164.83 164.83 0 0 0 4.822 5.234 178.611 178.611 0 0 0 5.222 5.187 210.529 210.529 0 0 0 5.634 5.151 228.407 228.407 0 0 0 6.045 5.117 242.822 242.822 0 0 0 13.338 10.102 883.401 883.401 0 0 0 4.308 3.049zm-11.844 16.936c.094-1.364 1.152-9.396-.611-10.655-38.483-27.475-71.898-65.982-66.759-118.87.259-2.717-2.964-4.316-4.963-2.458-104.23 96.586-208.46 193.18-312.69 289.77-1.611 1.493-1.105 4.151.953 4.939 22.476 8.621 45.67 15.078 68.052 23.993 23.394 9.315 42.624 19.689 56.867 42.26a2.42 2.42 0 0 0 4.093 0c18.112-28.71 48.739-39.954 77.531-49.811 29.733-10.186 59.561-19.112 87.306-34.932 28.71-16.36 49.893-36.213 66.312-65.229 7.845-13.855 13.562-28.181 17.713-43.529a196.544 196.544 0 0 0 4.975-24.158 193.3 193.3 0 0 0 1.222-11.315zm-19.56-229.41c1.694-2.082-3.857-13.443-4.434-14.949a2539.32 2539.32 0 0 0-5.811-14.89A2465.726 2465.726 0 0 0 485.3 90.653a2665.964 2665.964 0 0 0-24.876-58.901c-2.094-4.787-8.292-6.081-12.138-2.529-141.45 131.09-282.91 262.18-424.36 393.27-3.681 3.411 2.635 15.161 3.811 17.925a179.795 179.795 0 0 0 8.492 17.324c6.339 11.351 13.714 21.653 22.5 31.251 18.042 19.712 38.695 33.132 62.63 44.234 3.352 1.564 5.646 1.2 8.363-1.317 112.06-103.85 224.13-207.7 336.2-311.55.306-.294.518-.612.646-1 9.185-26.263 23.64-47.927 40.87-69.193zm-76.943-121.24c2.316-2.164.224-5.999-2.847-5.199-51.974 13.455-106.28 14.655-156.71-9.715-.753-.365-1.353-.365-2.105 0-58.643 28.346-122.28 21.947-180.46 2.694-3.364-1.118-4.411 4.563-5.234 6.422-1.223 2.787-2.458 5.586-3.681 8.386a2557.321 2557.321 0 0 0-7.269 16.795 2733.492 2733.492 0 0 0-14.196 33.755 2726.455 2726.455 0 0 0-13.714 33.956c-2.247 5.669-4.47 11.35-6.669 17.031a2628.19 2628.19 0 0 0-3.293 8.539c-.459 1.2-3.27 6.986-1.988 8.574 64.771 79.896 70.192 155.1-18.936 218.75-2.646 1.882-.071 16.572.165 18.524.753 6.269 1.835 12.455 3.199 18.618.518 2.306 3.329 3.176 5.057 1.576 136.22-126.24 272.44-252.47 408.68-378.71z"/><path fill="#A22122" d="M526.39 368.92c1.764 1.259.705 9.291.611 10.655a191.603 191.603 0 0 1-1.224 11.315 196.358 196.358 0 0 1-4.975 24.158c-4.151 15.349-9.868 29.674-17.713 43.529-16.419 29.016-37.602 48.868-66.312 65.229-27.745 15.819-57.572 24.746-87.306 34.932-28.792 9.856-59.419 21.101-77.531 49.811-.953 1.505-3.141 1.505-4.093 0-14.243-22.57-33.473-32.944-56.867-42.26-22.382-8.915-45.576-15.372-68.052-23.993-2.058-.788-2.564-3.446-.953-4.939 104.23-96.586 208.46-193.18 312.69-289.77 1.999-1.858 5.222-.258 4.963 2.458-5.138 52.892 28.277 91.399 66.761 118.87z"/><path fill="#333" d="M503 135.22c.576 1.505 6.128 12.867 4.434 14.949-17.23 21.265-31.686 42.93-40.871 69.193a2.413 2.413 0 0 1-.646 1c-112.08 103.85-224.14 207.7-336.2 311.55-2.717 2.518-5.011 2.882-8.363 1.317-23.935-11.103-44.587-24.522-62.63-44.234-8.786-9.598-16.16-19.9-22.5-31.251a180.263 180.263 0 0 1-8.492-17.324c-1.176-2.764-7.492-14.514-3.811-17.925 141.46-131.09 282.91-262.18 424.37-393.27 3.846-3.552 10.044-2.258 12.138 2.529a2670.028 2670.028 0 0 1 24.876 58.901 2482.405 2482.405 0 0 1 11.891 29.674c1.951 4.964 3.893 9.927 5.81 14.891z"/><path fill="#FDFEE6" d="M427.65 23.731c3.07-.8 5.163 3.035 2.847 5.199-136.23 126.24-272.46 252.47-408.68 378.71-1.729 1.6-4.54.729-5.057-1.576-1.364-6.163-2.446-12.35-3.199-18.618-.235-1.952-2.811-16.643-.165-18.524 89.128-63.653 83.707-138.86 18.936-218.75-1.282-1.588 1.529-7.375 1.988-8.574 1.094-2.846 2.188-5.692 3.293-8.539a2272.437 2272.437 0 0 1 6.669-17.031 2726.455 2726.455 0 0 1 13.714-33.956 2727.027 2727.027 0 0 1 14.196-33.755 2511.616 2511.616 0 0 1 7.269-16.795c1.223-2.799 2.458-5.599 3.681-8.386.823-1.858 1.87-7.54 5.234-6.422 58.172 19.253 121.81 25.652 180.46-2.693.753-.365 1.353-.365 2.105 0 50.433 24.368 104.74 23.169 156.71 9.713z"/><g fill="#D7BD5E"><path d="M95.283 491.43c1.655-.421 3.184-1.017 4.587-1.787s2.743-1.748 4.021-2.936c3.04-2.824 4.788-5.747 5.242-8.768.455-3.02-.431-5.729-2.659-8.126-2.663-2.865-8.03-4.067-16.102-3.609l-.074-.004a5.664 5.664 0 0 1-.6.047c-11.644.766-19.393-.925-23.244-5.069-1.768-1.903-3.103-4.16-4.005-6.771-.901-2.611-1.312-5.389-1.23-8.33.169-4.383 1.008-8.381 2.516-11.991 1.507-3.611 3.643-6.701 6.406-9.269 1.996-1.854 3.808-2.906 5.437-3.155 1.628-.247 3.073.307 4.334 1.663.437.471.845 1.247 1.225 2.328.381 1.082.733 2.444 1.06 4.086-1.381.512-2.69 1.138-3.93 1.879s-2.395 1.609-3.467 2.605c-3.269 3.037-5.132 6.165-5.592 9.383-.459 3.219.521 6.13 2.94 8.733 1.452 1.563 3.146 2.633 5.083 3.211s4.761.794 8.47.646c.548-.024 1.347-.063 2.395-.113 12.473-.523 20.623 1.272 24.447 5.389 1.453 1.563 2.605 3.355 3.459 5.377s1.408 4.273 1.664 6.755a25.762 25.762 0 0 1-1.755 12.08c-1.554 3.896-3.943 7.341-7.167 10.336-2.175 2.021-4.176 3.164-6.002 3.431-1.826.268-3.429-.342-4.808-1.825-.629-.677-1.165-1.524-1.607-2.545-.442-1.02-.79-2.237-1.044-3.651zM141.25 458.89c.483.571 1.02 1.188 1.612 1.851s1.457 1.606 2.594 2.83c3.267 3.516 6.107 6.25 8.524 8.202 2.415 1.952 4.625 3.308 6.629 4.065-.578 1.651-1.182 3.015-1.816 4.089s-1.362 1.994-2.187 2.76c-1.133 1.053-2.235 1.469-3.303 1.248-1.069-.221-2.402-1.19-4-2.91-1.695-1.824-5.697-6.481-12.003-13.974-6.308-7.49-11.955-13.92-16.942-19.288-5.229-5.627-9.204-9.595-11.922-11.899-2.718-2.306-5.198-3.97-7.443-4.991.395-.709.82-1.358 1.275-1.951.454-.593.99-1.177 1.607-1.749 1.311-1.219 2.69-1.794 4.14-1.729s2.832.753 4.146 2.063a30.398 30.398 0 0 1 3.073-8.808c1.468-2.752 3.237-5.09 5.309-7.016 5.19-4.822 11.159-7.09 17.907-6.803 6.747.288 12.555 3.051 17.423 8.29 5.232 5.631 7.739 12.265 7.52 19.898-.219 7.636-3.077 14.007-8.574 19.115-2.097 1.948-4.232 3.459-6.404 4.53s-4.562 1.798-7.165 2.177zm-4.964-5.731c2.654-.428 5.105-1.151 7.352-2.172a22.159 22.159 0 0 0 5.98-3.954c3.991-3.709 6.05-8.087 6.178-13.132.127-5.045-1.698-9.601-5.475-13.665-3.922-4.221-8.252-6.508-12.992-6.862-4.739-.354-9.066 1.287-12.98 4.925-1.664 1.546-3.107 3.507-4.332 5.882-1.225 2.376-2.151 5.047-2.782 8.011 2.225 2.498 4.92 5.49 8.089 8.978 3.17 3.487 6.823 7.483 10.962 11.989zM201.67 410.44c-5.938 5.518-12.505 8.149-19.704 7.896s-13.509-3.299-18.932-9.135c-5.762-6.201-8.445-13.091-8.047-20.669.396-7.578 3.781-14.329 10.153-20.251 5.758-5.351 12.206-7.919 19.343-7.706 7.138.215 13.321 3.135 18.55 8.762 2.106 2.267 3.836 4.834 5.19 7.703s2.156 5.644 2.406 8.323c.507 5.113.016 9.757-1.471 13.931-1.486 4.172-3.982 7.888-7.488 11.146zm-4.772-6.06c4.148-3.854 6.236-8.426 6.261-13.714s-2.019-10.146-6.132-14.572c-4.016-4.321-8.588-6.635-13.716-6.94s-9.766 1.47-13.914 5.324c-4.226 3.927-6.325 8.51-6.3 13.751s2.205 10.19 6.535 14.851c3.847 4.141 8.341 6.332 13.483 6.575 5.143.244 9.737-1.515 13.783-5.275zM208.1 345.24c-.616-4.508-.677-8.237-.182-11.19.496-2.952 1.587-5.213 3.275-6.781 1.431-1.33 3.08-2.003 4.946-2.021 1.865-.017 3.426.65 4.68 1.999.82.883 1.335 2.014 1.544 3.392s.125 3.016-.254 4.916c-1.468-.76-2.755-1.133-3.862-1.118-1.106.015-2.081.412-2.924 1.195-1.253 1.165-1.983 3.02-2.191 5.563-.208 2.545.125 5.618.996 9.222a107.357 107.357 0 0 0 3.024 3.869 75.557 75.557 0 0 0 3.179 3.652c3.64 3.917 6.885 6.986 9.733 9.205 2.849 2.219 5.498 3.748 7.946 4.587-.518 1.504-1.139 2.859-1.86 4.065a14.185 14.185 0 0 1-2.509 3.134c-1.259 1.17-2.423 1.657-3.492 1.46s-2.5-1.261-4.293-3.19c-.654-.704-3.03-3.537-7.13-8.499-4.099-4.962-8.026-9.464-11.782-13.506-3.077-3.312-5.568-5.735-7.471-7.271-1.903-1.534-3.779-2.708-5.626-3.519.343-.657.723-1.265 1.139-1.821.416-.555.893-1.083 1.431-1.584 1.487-1.382 2.922-2.049 4.304-2.002 1.382.046 2.761.81 4.135 2.289.314.338.724.817 1.227 1.437.505.621 1.178 1.459 2.017 2.517zM232.07 321.98c-.435.404-1.016.982-1.744 1.735a49.178 49.178 0 0 1-1.438 1.449c-1.048.974-1.922 1.507-2.623 1.598-.701.092-1.392-.23-2.073-.963-.316-.34-.629-.791-.939-1.356-.311-.563-.605-1.253-.884-2.066.205-.19.561-.498 1.071-.923.509-.426.904-.769 1.186-1.03.664-.617 1.689-1.642 3.074-3.072.179-.166.307-.309.385-.431a43.627 43.627 0 0 1-1.16-1.324 42.322 42.322 0 0 0-1.123-1.286c-1.887-2.03-3.679-3.701-5.374-5.014-1.696-1.312-3.356-2.305-4.981-2.978.591-1.568 1.187-2.899 1.79-3.994.603-1.093 1.21-1.925 1.824-2.496 1.047-.973 2.117-1.347 3.207-1.123s2.337 1.092 3.741 2.603c.605.651 2.39 2.803 5.354 6.453a650.54 650.54 0 0 1 2.64 3.227c1.294-1.587 2.487-2.985 3.582-4.194s2.116-2.255 3.063-3.135c.845-.785 1.599-1.193 2.26-1.226.662-.033 1.32.303 1.974 1.006.363.391.702.986 1.017 1.786.315.801.594 1.767.838 2.9-.818.455-1.635.988-2.454 1.597s-1.753 1.401-2.803 2.377c-.179.166-.698.687-1.556 1.561s-1.596 1.621-2.21 2.243c3.552 4.285 6.502 7.792 8.849 10.522s4.295 4.93 5.847 6.6c3.37 3.627 6.042 5.873 8.015 6.737 1.973.865 3.702.607 5.188-.774.409-.38.768-.855 1.073-1.426.305-.57.533-1.237.685-1.999.713.305 1.303.605 1.767.898a5.7 5.7 0 0 1 1.13.908c1.182 1.271 1.635 2.799 1.358 4.579-.276 1.782-1.246 3.444-2.91 4.99-2.764 2.568-5.684 3.546-8.759 2.931s-6.405-2.852-9.99-6.709c-1.017-1.095-3.584-4.113-7.7-9.056a1371.16 1371.16 0 0 0-10.197-12.125zM248.59 302.19c-.648-2.798-.926-5.031-.832-6.697s.549-2.879 1.368-3.64c1.174-1.091 2.987-1.28 5.435-.566 2.449.713 7.332 3.139 14.651 7.274 1.081.6 2.629 1.471 4.643 2.613 12.031 6.902 18.391 10.032 19.081 9.391.459-.427.559-1.831.297-4.213s-.856-5.304-1.788-8.765c-1.586-6.011-3.318-11.025-5.193-15.042-1.876-4.016-4.002-7.303-6.378-9.86-.751-.808-1.548-1.524-2.392-2.151s-1.732-1.186-2.667-1.679c.368-.632.771-1.226 1.211-1.781.441-.555.943-1.095 1.508-1.619 1.743-1.62 3.29-2.461 4.641-2.526 1.35-.064 2.691.621 4.023 2.055 2.424 2.608 4.729 6.77 6.92 12.485 2.19 5.716 4.076 12.577 5.656 20.583 1.385 6.926 2.018 11.926 1.897 15.002s-.896 5.278-2.327 6.608c-2.302 2.139-8.129.532-17.483-4.818-3.193-1.795-5.723-3.21-7.59-4.245-5.97-3.297-10.919-5.609-14.847-6.94s-7.206-1.821-9.834-1.469zM345.95 259.22c1.216.182 2.242.453 3.081.815.838.362 1.522.83 2.055 1.402 1.307 1.406 1.349 3.516.126 6.327-1.225 2.812-3.497 5.761-6.821 8.85-6.111 5.679-12.48 8.427-19.109 8.242-6.627-.185-12.729-3.277-18.304-9.276-5.624-6.052-8.478-12.624-8.562-19.715s2.61-13.181 8.084-18.268c4.221-3.921 8.823-5.917 13.812-5.987 4.987-.07 9.249 1.798 12.784 5.603 2.785 2.997 3.644 6.18 2.578 9.55-1.065 3.371-4.3 7.564-9.7 12.583a114.58 114.58 0 0 1-6.248 5.403 111.298 111.298 0 0 1-6.571 4.9l.511.549c3.795 4.083 7.976 6.223 12.543 6.417 4.567.195 8.872-1.586 12.916-5.344 1.893-1.759 3.408-3.643 4.547-5.651a19.566 19.566 0 0 0 2.278-6.4zm-36.669 5.335c1.954-1.283 4.015-2.798 6.182-4.546a127.828 127.828 0 0 0 6.781-5.902c3.198-2.972 5.058-5.255 5.576-6.852.52-1.597.056-3.174-1.394-4.734-2.198-2.365-4.743-3.487-7.636-3.368-2.892.122-5.732 1.478-8.521 4.068-2.968 2.758-4.542 6.015-4.726 9.769-.183 3.754 1.063 7.609 3.738 11.565zM343.42 219.5c-.616-4.508-.677-8.237-.182-11.19.496-2.952 1.587-5.213 3.274-6.781 1.432-1.331 3.08-2.004 4.946-2.021s3.427.65 4.681 2c.82.883 1.335 2.013 1.543 3.391.209 1.378.125 3.016-.254 4.916-1.468-.759-2.756-1.132-3.862-1.118-1.106.015-2.081.413-2.924 1.196-1.254 1.165-1.983 3.019-2.19 5.563-.208 2.545.124 5.618.995 9.221a108.273 108.273 0 0 0 3.024 3.87 76.111 76.111 0 0 0 3.179 3.652c3.64 3.917 6.885 6.986 9.733 9.205s5.498 3.749 7.946 4.587c-.518 1.504-1.139 2.859-1.86 4.065s-1.558 2.25-2.508 3.133c-1.26 1.17-2.424 1.657-3.492 1.46s-2.499-1.261-4.293-3.191c-.654-.704-3.03-3.537-7.13-8.499-4.099-4.961-8.026-9.464-11.782-13.506-3.077-3.312-5.568-5.735-7.472-7.271-1.903-1.535-3.778-2.708-5.626-3.518.344-.658.723-1.265 1.14-1.821.415-.556.893-1.084 1.431-1.584 1.487-1.382 2.922-2.049 4.304-2.002s2.761.811 4.136 2.29c.313.338.723.817 1.227 1.437a260.57 260.57 0 0 1 2.016 2.516zM412.9 197.01c1.217.182 2.243.453 3.081.815s1.522.83 2.055 1.402c1.307 1.406 1.35 3.516.126 6.327-1.224 2.812-3.497 5.761-6.82 8.85-6.112 5.679-12.481 8.427-19.109 8.242s-12.729-3.277-18.304-9.276c-5.624-6.052-8.479-12.624-8.563-19.715s2.61-13.181 8.085-18.268c4.22-3.921 8.823-5.917 13.811-5.987 4.987-.07 9.25 1.798 12.785 5.603 2.784 2.997 3.644 6.181 2.578 9.55-1.066 3.37-4.3 7.564-9.7 12.583a114.959 114.959 0 0 1-6.248 5.403 112.528 112.528 0 0 1-6.571 4.9l.511.549c3.794 4.083 7.975 6.223 12.543 6.417 4.567.195 8.872-1.586 12.915-5.344 1.893-1.759 3.409-3.642 4.547-5.651a19.543 19.543 0 0 0 2.278-6.4zm-36.669 5.335c1.954-1.283 4.015-2.799 6.182-4.546s4.428-3.714 6.782-5.902c3.197-2.971 5.058-5.255 5.576-6.852.519-1.596.055-3.174-1.395-4.734-2.197-2.365-4.743-3.487-7.635-3.367-2.893.121-5.733 1.477-8.521 4.068-2.968 2.758-4.543 6.014-4.727 9.768-.182 3.754 1.064 7.609 3.738 11.565zM394.56 134.66c1.38 1.485 2.018 3.199 1.912 5.142-.105 1.943-.939 3.641-2.504 5.094-1.358 1.262-2.798 1.872-4.319 1.829-1.521-.042-2.898-.729-4.133-2.058-1.356-1.459-2-3.18-1.931-5.162.068-1.981.833-3.652 2.295-5.01 1.333-1.238 2.816-1.84 4.45-1.803s3.044.691 4.23 1.968zm45.919 48.8c-.512 1.593-1.118 2.984-1.819 4.169-.701 1.186-1.497 2.193-2.388 3.021-1.248 1.159-2.416 1.601-3.504 1.324s-2.601-1.458-4.539-3.544c-1.114-1.199-3.495-3.991-7.144-8.376-3.647-4.385-6.865-8.077-9.651-11.076-3.029-3.259-5.642-5.762-7.839-7.511-2.197-1.748-4.308-3.019-6.331-3.812.414-1.453.979-2.792 1.695-4.016s1.559-2.287 2.527-3.187c1.173-1.09 2.248-1.542 3.227-1.358s2.207 1.071 3.685 2.662c.389.417 2.394 2.805 6.018 7.164s7.168 8.403 10.633 12.131c3.247 3.494 6.107 6.229 8.583 8.206 2.474 1.977 4.756 3.377 6.847 4.203zM431.63 139.02c2.612 2.915 5.404 6.062 8.378 9.441 2.974 3.38 4.654 5.278 5.041 5.694 3.148 3.388 5.856 5.994 8.125 7.819s4.391 3.131 6.364 3.918c-.545 1.575-1.139 2.917-1.783 4.024a12.42 12.42 0 0 1-2.275 2.878c-1.18 1.097-2.303 1.509-3.369 1.237s-2.604-1.491-4.615-3.655c-.437-.469-2.546-3.015-6.329-7.637s-7.479-8.875-11.089-12.76c-3.416-3.676-6.195-6.388-8.339-8.136-2.145-1.749-4.272-3.124-6.383-4.126.392-.705.825-1.376 1.304-2.016.478-.638.983-1.207 1.52-1.706 1.354-1.258 2.786-1.869 4.295-1.833 1.509.037 2.971.713 4.386 2.031.604-3.193 1.62-6.173 3.05-8.94 1.429-2.766 3.19-5.123 5.286-7.071 2.556-2.375 5.376-3.938 8.461-4.691 3.086-.753 6.099-.625 9.037.384 2.025.694 4.051 1.811 6.078 3.352 2.028 1.542 4.786 4.188 8.274 7.943.364.392 1.205 1.335 2.523 2.831s2.475 2.777 3.468 3.846c2.495 2.686 4.812 4.833 6.948 6.444 2.136 1.61 4.057 2.644 5.76 3.101-.645 1.716-1.274 3.128-1.891 4.234-.615 1.106-1.282 1.992-1.997 2.657-1.202 1.117-2.336 1.576-3.402 1.377-1.066-.198-2.422-1.184-4.069-2.956-.992-1.068-3.045-3.445-6.158-7.133-3.114-3.687-5.82-6.768-8.12-9.243-4.382-4.716-8.263-7.483-11.642-8.302-3.378-.817-6.625.22-9.741 3.116-1.584 1.472-2.986 3.395-4.208 5.767-1.223 2.375-2.185 5.078-2.888 8.111z"/></g><g fill="#D7BD5E"><path d="M245.11 515.53c-1.579.518-3.269 1.386-5.07 2.604-1.801 1.219-3.912 2.952-6.33 5.2-1.001.931-2.827 2.687-5.479 5.269a68.467 68.467 0 0 1-1.502 1.456l12.845 14.325a32.229 32.229 0 0 0 1.874-1.62l3.065-2.848c2.772-2.577 5-4.768 6.683-6.573s2.821-3.226 3.414-4.26c.803.361 1.478.713 2.027 1.053.549.341.992.691 1.327 1.052.947 1.02 1.305 2.053 1.073 3.099-.232 1.047-1.089 2.257-2.569 3.632a299.29 299.29 0 0 1-3.608 3.234 303.973 303.973 0 0 0-4.954 4.483c-1.043.97-1.84 1.721-2.394 2.254a82.428 82.428 0 0 0-1.519 1.501 551.013 551.013 0 0 1 7.061 7.756 960.592 960.592 0 0 1 8.061 9.146c.208-.193.531-.473.969-.84 2.79-2.473 4.769-4.253 5.937-5.339 2.23-2.072 4.009-3.973 5.337-5.702 1.326-1.729 2.327-3.464 3.003-5.204 1.211.381 2.197.782 2.959 1.203.763.422 1.381.888 1.854 1.397 1.048 1.128 1.418 2.26 1.113 3.395-.306 1.136-1.481 2.653-3.524 4.553-1.002.931-2.531 2.296-4.586 4.1-2.056 1.804-3.575 3.16-4.555 4.071a207.842 207.842 0 0 0-6.499 6.308c-.442.445-.714.717-.818.814-.73.679-1.405.988-2.023.929-.619-.059-1.322-.514-2.113-1.364-.415-.446-1.421-1.631-3.019-3.554-5.798-6.893-11.374-13.22-16.728-18.981-5.314-5.719-9.672-10.207-13.073-13.465-3.401-3.257-6.113-5.549-8.136-6.88l4-3.717a320.522 320.522 0 0 0 14.583-14.476c1.044-1.093 1.68-1.747 1.909-1.959 1.689-1.57 3.025-2.453 4.007-2.65.981-.198 1.928.192 2.839 1.173.515.555.985 1.278 1.412 2.173.427.894.809 1.978 1.147 3.252zM305.8 523.92c.22 3.078-.099 5.786-.955 8.124-.857 2.337-2.306 4.455-4.348 6.353-3.438 3.194-7.051 4.583-10.838 4.163-3.787-.419-7.536-2.626-11.247-6.619-.79-.85-2.194-2.465-4.212-4.845-2.018-2.381-3.697-4.293-5.04-5.738-1.796-1.933-3.415-3.446-4.856-4.541-1.441-1.096-2.875-1.892-4.299-2.389.502-1.337.998-2.442 1.488-3.313s.975-1.529 1.454-1.975c.978-.909 1.881-1.282 2.71-1.122.828.161 1.865.91 3.108 2.249.987 1.063 2.793 3.176 5.419 6.337 2.626 3.163 4.838 5.711 6.635 7.644 3.771 4.059 6.86 6.424 9.271 7.095 2.409.671 4.791-.088 7.146-2.275 1.729-1.607 2.934-3.518 3.613-5.733s.867-4.884.565-8.009a175.144 175.144 0 0 0-3.797-4.459 238.258 238.258 0 0 0-4.514-4.981c-2.685-2.89-5.07-5.176-7.157-6.86-2.086-1.685-3.953-2.812-5.6-3.379.483-1.36.981-2.496 1.493-3.407.513-.911 1.07-1.647 1.675-2.21.916-.852 1.828-1.144 2.735-.878.907.267 2.278 1.386 4.114 3.362.869.935 2.722 3.045 5.559 6.327 2.837 3.283 5.302 6.051 7.395 8.303 2.922 3.145 5.309 5.452 7.159 6.918 1.851 1.468 3.523 2.398 5.019 2.79-.57 1.48-1.097 2.652-1.578 3.516-.482.864-.974 1.527-1.475 1.992-.898.835-1.806 1.095-2.722.778s-2.223-1.391-3.92-3.218zM302.92 487.59c-.354.328-.827.8-1.42 1.413a41.446 41.446 0 0 1-1.171 1.179c-.853.793-1.564 1.227-2.135 1.301s-1.133-.188-1.687-.783c-.257-.277-.513-.646-.766-1.104a10.927 10.927 0 0 1-.719-1.683c.166-.154.457-.404.872-.75s.736-.625.965-.838c.541-.503 1.374-1.336 2.501-2.501a1.91 1.91 0 0 0 .313-.351 37.67 37.67 0 0 1-.948-1.082c-.415-.488-.721-.84-.919-1.053-1.544-1.661-3.008-3.027-4.394-4.103-1.385-1.074-2.741-1.888-4.068-2.441.476-1.275.958-2.357 1.445-3.248.487-.89.979-1.565 1.477-2.028.851-.79 1.721-1.092 2.608-.905.889.188 1.907.898 3.056 2.134.494.532 1.955 2.291 4.384 5.274.908 1.102 1.628 1.98 2.161 2.636a88.847 88.847 0 0 1 2.927-3.43 41.764 41.764 0 0 1 2.505-2.563c.69-.642 1.306-.977 1.846-1.004.54-.026 1.077.246 1.609.819.297.318.572.804.828 1.457.255.653.48 1.441.677 2.366a18.35 18.35 0 0 0-2.002 1.306 28.23 28.23 0 0 0-2.288 1.941c-.146.136-.57.562-1.271 1.274s-1.303 1.323-1.805 1.83a645.844 645.844 0 0 0 7.215 8.571c1.913 2.224 3.502 4.016 4.767 5.376 2.746 2.955 4.923 4.785 6.531 5.49 1.607.706 3.017.495 4.227-.63.334-.31.626-.696.875-1.16s.437-1.005.562-1.625c.583.25 1.064.495 1.444.735s.688.487.925.742c.966 1.04 1.339 2.287 1.116 3.739-.223 1.453-1.011 2.809-2.364 4.066-2.25 2.09-4.628 2.884-7.134 2.38-2.506-.503-5.221-2.329-8.146-5.476-.829-.894-2.923-3.354-6.281-7.385s-6.131-7.323-8.318-9.886zM314.89 446.84c1.124 1.21 1.643 2.605 1.558 4.188s-.765 2.964-2.037 4.146c-1.106 1.027-2.277 1.524-3.516 1.488-1.239-.035-2.36-.595-3.366-1.677-1.104-1.188-1.628-2.588-1.572-4.202.055-1.613.678-2.974 1.867-4.079 1.085-1.008 2.293-1.497 3.622-1.468 1.329.031 2.478.565 3.444 1.604zm37.439 39.788c-.419 1.301-.915 2.436-1.487 3.403-.573.968-1.224 1.79-1.951 2.466-1.02.947-1.973 1.31-2.86 1.083-.887-.225-2.12-1.188-3.701-2.889-.909-.978-2.852-3.253-5.83-6.824-2.977-3.571-5.602-6.579-7.874-9.024-2.469-2.657-4.599-4.698-6.39-6.124-1.792-1.426-3.512-2.462-5.161-3.108a14.065 14.065 0 0 1 1.382-3.274 11.304 11.304 0 0 1 2.062-2.6c.956-.888 1.834-1.258 2.631-1.107.799.149 1.801.873 3.005 2.169.317.341 1.954 2.285 4.911 5.836a243.143 243.143 0 0 0 8.674 9.885c2.647 2.849 4.98 5.079 7 6.688 2.017 1.609 3.88 2.749 5.589 3.42zM345.04 450.4c2.134 2.379 4.414 4.948 6.842 7.707s3.801 4.308 4.116 4.647c2.57 2.767 4.781 4.896 6.631 6.388 1.851 1.491 3.579 2.562 5.187 3.208-.439 1.28-.918 2.37-1.438 3.27a9.974 9.974 0 0 1-1.842 2.335c-.957.89-1.869 1.223-2.736.998-.866-.224-2.12-1.219-3.76-2.983-.355-.382-2.08-2.453-5.176-6.213a231.211 231.211 0 0 0-9.058-10.391c-2.786-2.997-5.054-5.208-6.804-6.632s-3.486-2.545-5.211-3.358c.321-.574.677-1.121 1.067-1.642s.805-.985 1.242-1.392c1.104-1.026 2.271-1.528 3.497-1.506 1.226.023 2.412.567 3.557 1.632.503-2.595 1.34-5.02 2.513-7.271 1.172-2.252 2.613-4.173 4.324-5.762 2.085-1.938 4.387-3.215 6.904-3.831s4.975-.513 7.37.31c1.653.564 3.306 1.476 4.958 2.731 1.653 1.257 3.903 3.415 6.747 6.476.296.318.981 1.088 2.057 2.308a160.935 160.935 0 0 0 2.826 3.137c2.035 2.189 3.925 3.94 5.668 5.25 1.744 1.312 3.313 2.15 4.708 2.518-.527 1.401-1.042 2.555-1.545 3.458-.504.904-1.048 1.627-1.633 2.17-.981.912-1.907 1.287-2.778 1.125-.87-.162-1.978-.967-3.322-2.413-.81-.872-2.485-2.813-5.027-5.824s-4.751-5.525-6.63-7.548c-3.578-3.85-6.746-6.108-9.505-6.776s-5.41.18-7.954 2.544c-1.293 1.202-2.438 2.772-3.437 4.71-.998 1.937-1.784 4.144-2.358 6.62zM391.97 430c-2.983.832-5.696.945-8.138.339-2.44-.604-4.6-1.918-6.478-3.938-3.023-3.254-4.371-7.006-4.043-11.255.329-4.248 2.301-8.053 5.915-11.411 1.038-.964 2.246-1.788 3.624-2.473 1.378-.684 2.925-1.246 4.643-1.689 1.747-2.808 2.941-4.995 3.586-6.563.646-1.567.878-2.761.698-3.583.825.065 1.563.251 2.214.559a5.593 5.593 0 0 1 1.715 1.258c1.008 1.085 1.383 2.292 1.124 3.621-.258 1.329-1.227 3.031-2.905 5.106 1.642.257 3.084.699 4.327 1.324a11.66 11.66 0 0 1 3.317 2.501c2.745 2.954 3.916 6.469 3.514 10.545-.401 4.075-2.299 7.688-5.691 10.841a26.35 26.35 0 0 1-1.371 1.185c-.498.404-1.017.797-1.554 1.178-.019.771.05 1.451.208 2.038.159.587.416 1.071.772 1.454 1.365 1.47 4.457.797 9.277-2.018 1.134-.655 2.01-1.171 2.628-1.548 4.788-2.709 8.438-4.093 10.948-4.151s4.811 1.037 6.901 3.287c2.998 3.227 4.052 7.212 3.16 11.957-.892 4.744-3.576 9.197-8.056 13.359-4.168 3.873-8.273 6.057-12.316 6.552-4.045.493-7.447-.745-10.208-3.717-1.934-2.08-3.033-4.47-3.298-7.169s.302-5.649 1.7-8.848c-.939.001-1.769-.122-2.485-.367a4.454 4.454 0 0 1-1.848-1.199c-.652-.702-1.131-1.646-1.435-2.831-.302-1.185-.45-2.633-.445-4.344zm3.473-8.571c2.117-1.968 3.279-4.226 3.484-6.773.206-2.547-.579-4.776-2.356-6.689-1.856-1.997-4.012-2.994-6.465-2.991-2.454.003-4.761 1.009-6.92 3.015-2.221 2.064-3.453 4.329-3.697 6.793-.245 2.464.542 4.674 2.358 6.628 1.836 1.977 4.026 2.971 6.571 2.981s4.887-.978 7.025-2.964zm7.952 16.756.063-.058c-1.077 2.306-1.569 4.375-1.478 6.206.092 1.832.75 3.405 1.973 4.722 1.813 1.952 4.12 2.745 6.919 2.379 2.798-.366 5.602-1.854 8.409-4.463 2.725-2.531 4.432-5.116 5.12-7.753s.254-4.794-1.304-6.471c-2.347-2.525-8.677-.854-18.991 5.015-.331.187-.567.328-.711.423zM445.55 390.18c.993.146 1.832.364 2.517.659s1.243.675 1.677 1.142c1.066 1.147 1.1 2.866.103 5.158-.998 2.292-2.851 4.697-5.561 7.215-4.981 4.629-10.174 6.869-15.576 6.719-5.402-.149-10.375-2.669-14.918-7.559-4.583-4.932-6.909-10.286-6.978-16.065s2.127-10.742 6.588-14.888c3.438-3.195 7.192-4.82 11.259-4.875 4.066-.054 7.542 1.471 10.426 4.574 2.272 2.444 2.975 5.04 2.108 7.786s-3.498 6.163-7.896 10.249a94.218 94.218 0 0 1-5.088 4.401 90.75 90.75 0 0 1-5.351 3.989l.415.447c3.085 3.319 6.483 5.057 10.199 5.211s7.22-1.298 10.512-4.357c1.542-1.433 2.776-2.966 3.703-4.601s1.548-3.369 1.861-5.205zm-29.845 4.359a63.752 63.752 0 0 0 5.032-3.697 103.376 103.376 0 0 0 5.52-4.803c2.604-2.418 4.114-4.277 4.534-5.579.42-1.301.038-2.59-1.146-3.865-1.798-1.935-3.876-2.854-6.235-2.763-2.358.094-4.672 1.193-6.941 3.302-2.415 2.245-3.693 4.898-3.836 7.961-.142 3.063.882 6.211 3.072 9.444zM444.66 357.83a1068.86 1068.86 0 0 1 6.842 7.707c2.428 2.759 3.801 4.308 4.116 4.647 2.571 2.767 4.781 4.896 6.631 6.387 1.851 1.492 3.579 2.562 5.187 3.209-.439 1.28-.918 2.37-1.438 3.27a9.974 9.974 0 0 1-1.842 2.335c-.957.89-1.869 1.223-2.736.998-.866-.225-2.12-1.219-3.761-2.983-.354-.383-2.08-2.453-5.176-6.213s-6.114-7.223-9.058-10.391c-2.785-2.997-5.053-5.208-6.803-6.632-1.75-1.425-3.487-2.545-5.212-3.359.322-.573.678-1.12 1.068-1.641s.805-.985 1.242-1.392c1.104-1.026 2.27-1.528 3.496-1.506 1.227.023 2.412.567 3.557 1.632a26.617 26.617 0 0 1 2.513-7.271c1.173-2.252 2.614-4.173 4.324-5.762 2.085-1.938 4.388-3.215 6.905-3.832 2.518-.615 4.975-.513 7.37.311 1.653.564 3.306 1.476 4.958 2.731 1.653 1.257 3.902 3.415 6.746 6.476.297.318.982 1.088 2.057 2.308s2.018 2.266 2.827 3.137c2.035 2.189 3.924 3.94 5.668 5.25 1.743 1.312 3.313 2.15 4.707 2.518-.526 1.401-1.042 2.555-1.545 3.458-.504.904-1.048 1.627-1.632 2.17-.981.912-1.907 1.287-2.778 1.125-.87-.162-1.979-.967-3.322-2.413-.811-.872-2.486-2.813-5.028-5.824-2.541-3.011-4.751-5.525-6.629-7.548-3.578-3.85-6.746-6.108-9.505-6.776-2.76-.668-5.411.18-7.954 2.544-1.294 1.202-2.439 2.772-3.437 4.71-.997 1.936-1.783 4.143-2.358 6.62z"/></g><switch transform="matrix(.576 -.5372 .5372 .576 25.53 135.24)"><g fill="#047404"><path d="M136.98 216.669c-8.468-3.926-9.808-7.293-6.777-17.018 2.953-9.477 3.166-30.663.408-40.65-2.452-8.877-11.504-27.004-13.483-27-.346.001-.658 4.164-.696 9.25-.08 10.965-1.59 18.034-5.638 26.407-3.874 8.01-10.73 14.86-18.614 18.6-5.668 2.687-7.06 2.948-13.5 2.527-11.23-.733-20.414-6.184-25.913-15.378-3.206-5.36-4.188-6.06-14.767-10.52-12.971-5.47-20.63-15.775-19.801-26.642 1.195-15.659 16.536-30.776 38.624-38.06 2.928-.966 5.33-2.175 5.338-2.688.009-.513-2.969-2.142-6.617-3.62-15.23-6.17-26.191-15.352-31.714-26.57-6.027-12.243-4.195-24.674 4.868-33.031 5.312-4.898 13.08-8.267 21.013-9.115 6.616-.707 7.333-1.04 12.897-6.002C71.607 9.135 77.761 6.5 87.5 6.5c6.875 0 8.64.377 12.557 2.68 8.669 5.095 15.349 14.124 18.666 25.227 1.695 5.676 2.165 22.598.89 32.028-.92 6.797-2.181 7.067 9.999-2.144C143.249 53.977 158.755 48 171.873 48c19.834 0 33.632 11.901 33.624 29-.003 5.34-.606 7.742-3.38 13.455l-3.375 6.955 1.277 8.209c2.083 13.393.492 21.174-5.712 27.944-3.742 4.082-6.894 5.94-13.316 7.847-12.637 3.753-28.465.49-43.491-8.964-2.75-1.73-6.047-3.698-7.326-4.372-2.225-1.172-2.273-1.125-1.121 1.1.662 1.28 1.778 3.001 2.48 3.826 1.856 2.183 8.974 16.602 11.354 23 4.046 10.877 6.15 22.374 7.136 38.99.538 9.068.703 17.956.366 19.75-.599 3.192-.719 3.258-5.75 3.179-2.827-.045-6.273-.607-7.66-1.25z"/></g></switch></svg>